<svg width="521" height="483" viewBox="0 0 521 483" fill="none" xmlns="http://www.w3.org/2000/svg">
<mask id="mask0_471_29619" style="mask-type:alpha" maskUnits="userSpaceOnUse" x="0" y="0" width="521" height="483">
<path fill-rule="evenodd" clip-rule="evenodd" d="M79.3713 388.525C-15.3431 286.959 -23.5385 132.065 46.3513 0.000229998H521V418.362C453.495 461.275 378.443 482.939 306.507 482.942C220.152 482.946 138.304 451.723 79.3713 388.525H79.3713Z" fill="white"/>
</mask>
<g mask="url(#mask0_471_29619)">
<path fill-rule="evenodd" clip-rule="evenodd" d="M531.289 163.965C518.643 169.969 504.606 173.168 490.776 175.03C472.127 177.751 453.4 176.628 434.664 175.507C422.424 174.777 410.177 174.044 397.952 174.384C369.287 174.972 339.433 178.299 311.176 186.254C311.239 185.497 310.99 184.773 310.462 184.207C310.066 183.785 309.586 183.498 309 183.452C308.455 183.411 307.901 183.585 307.482 183.934C307.439 183.97 307.396 184.005 307.356 184.042C307.359 184.024 307.366 184.005 307.368 183.987C307.445 183.702 307.542 183.415 307.565 183.118C307.614 182.493 307.488 181.862 307.078 181.369C306.83 181.072 306.518 180.835 306.16 180.695C306.476 180.056 306.791 179.415 307.081 178.765C307.644 177.521 308.204 176.27 308.409 174.913C308.479 174.451 308.455 174.012 308.256 173.579C308.061 173.157 307.723 172.809 307.31 172.597C306.58 172.218 305.613 172.295 304.985 172.849C304.658 173.136 304.341 173.436 304.098 173.804C303.908 174.092 303.731 174.388 303.544 174.679C303.26 175.133 302.972 175.585 302.684 176.038C302.248 176.725 301.815 177.417 301.384 178.105C301.367 178.133 301.348 178.162 301.33 178.191C301.367 178.087 301.406 177.983 301.443 177.88C301.733 177.077 301.951 176.249 302.158 175.42C302.32 174.774 302.477 174.14 302.44 173.469C302.418 173.03 302.248 172.617 302.076 172.218C301.706 171.367 300.686 170.839 299.778 171.032C299.499 171.09 299.216 171.158 298.95 171.27C299.154 170.744 299.356 170.215 299.488 169.668C299.629 169.101 299.699 168.566 299.656 167.983C299.594 167.133 299.062 166.387 298.252 166.1C297.527 165.841 296.792 166.019 296.189 166.467C295.651 166.868 295.251 167.417 294.889 167.981C294.96 167.795 295.033 167.607 295.104 167.42C295.266 166.991 295.413 166.556 295.55 166.118C295.666 165.747 295.786 165.349 295.81 164.96C295.828 164.695 295.832 164.434 295.832 164.17C295.835 163.437 295.324 162.729 294.69 162.4C294.008 162.048 293.241 162.117 292.585 162.493C292.497 162.543 292.414 162.598 292.332 162.656C292.351 162.592 292.369 162.528 292.386 162.462C292.585 161.775 292.858 161.066 292.903 160.345C292.922 160.052 292.944 159.774 292.895 159.481C292.849 159.208 292.784 158.949 292.711 158.684C292.515 157.964 291.848 157.406 291.132 157.256C290.483 157.119 289.862 157.308 289.343 157.7C289.018 157.947 288.706 158.203 288.459 158.529C288.232 158.823 288.027 159.134 287.847 159.458C287.994 158.961 288.14 158.444 288.162 157.94C288.174 157.652 288.198 157.366 288.147 157.079C288.086 156.752 288.009 156.444 287.917 156.126C287.565 154.902 286.127 154.346 285.008 154.851C284.561 155.051 284.09 155.262 283.759 155.637C283.392 156.051 283.141 156.491 282.881 156.975L282.661 157.384C282.41 157.015 282.049 156.722 281.615 156.568C281.395 156.489 281.159 156.45 280.924 156.45C281.196 155.707 281.464 154.961 281.719 154.215C281.921 153.631 282.116 153.045 282.315 152.46C282.438 152.097 282.572 151.735 282.679 151.365C282.762 151.078 282.875 150.773 282.92 150.476C282.964 150.181 283.003 149.888 283.034 149.593C283.131 148.655 282.505 147.747 281.633 147.435C280.794 147.136 279.678 147.417 279.195 148.211C279.091 148.386 278.987 148.56 278.882 148.738C278.926 148.554 278.968 148.37 279.014 148.188C279.244 147.281 278.727 146.292 277.916 145.873C277.068 145.435 276.043 145.634 275.392 146.316C274.936 146.791 274.544 147.29 274.251 147.884C273.999 148.401 273.776 148.932 273.549 149.46C272.775 151.153 271.971 152.83 271.21 154.53C271.053 154.884 270.895 155.237 270.735 155.591C270.797 155.332 270.855 155.076 270.897 154.812C270.941 154.528 270.937 154.261 270.93 153.972C270.916 153.467 270.668 153 270.417 152.576C269.664 151.295 267.743 151.314 266.918 152.491C266.612 152.928 266.287 153.355 266.03 153.823C265.81 154.222 265.604 154.625 265.418 155.038C265.235 155.447 265.051 155.856 264.867 156.266C264.721 156.194 264.565 156.14 264.396 156.105C263.594 155.935 262.713 156.267 262.252 156.949C261.93 157.42 261.596 157.885 261.331 158.392C261.42 157.93 261.505 157.47 261.591 157.008C261.701 156.419 261.814 155.828 261.925 155.237C262.016 154.741 262.194 154.28 262.182 153.769C262.166 153.258 262.08 152.837 261.805 152.399C260.982 151.076 258.917 151.154 258.217 152.557C257.751 153.488 257.384 154.478 257.005 155.447C256.61 156.469 256.215 157.491 255.824 158.515C255.169 160.23 254.541 161.959 253.982 163.707C253.704 164.575 253.422 165.441 253.147 166.311C253.199 165.718 253.242 165.121 253.217 164.529C253.189 163.896 253.089 163.271 253.012 162.643C252.923 161.923 252.33 161.297 251.666 161.061C250.971 160.814 250.222 160.971 249.65 161.422C249.402 161.617 249.17 161.814 248.95 162.044C248.683 162.327 248.496 162.697 248.322 163.04C248.271 163.142 248.224 163.244 248.178 163.35C248.132 163.266 248.083 163.184 248.032 163.107C248.023 163.044 248.016 162.979 248.007 162.915C247.909 162.138 247.784 161.359 247.609 160.592L247.618 160.333C247.64 159.631 247.671 158.926 247.652 158.225C247.634 157.548 247.557 156.892 247.453 156.223C247.318 155.331 246.507 154.64 245.621 154.57C245.189 154.537 244.748 154.646 244.384 154.88C244.189 155.004 244.029 155.153 243.895 155.323C243.837 155.316 243.776 155.312 243.714 155.31C243.195 155.283 242.711 155.438 242.247 155.655C241.707 155.908 241.252 156.355 240.965 156.871C240.708 157.327 240.527 157.834 240.358 158.327C240.261 158.608 240.172 158.89 240.083 159.175C240.022 159.164 239.957 159.156 239.893 159.152C239.009 159.083 238.04 159.643 237.783 160.525C237.709 160.773 237.642 161.021 237.577 161.27C237.329 161.087 237.046 160.955 236.758 160.894C236.158 160.768 235.497 160.922 235.029 161.323C234.723 161.586 234.392 161.88 234.218 162.251C234.023 162.666 233.863 163.082 233.778 163.536C233.613 164.416 233.423 165.288 233.284 166.173C233.145 167.086 232.964 168.002 232.86 168.92C232.723 170.164 232.596 171.407 232.487 172.654C232.322 173.69 232.178 174.731 232.067 175.771C231.889 177.451 231.724 179.133 231.594 180.818C231.532 181.571 231.486 182.327 231.44 183.081C231.37 184.189 231.149 185.626 232.125 186.416C232.609 186.806 233.182 187.02 233.78 186.949C233.664 188.26 233.569 189.57 233.453 190.881C233.233 193.391 232.927 195.894 232.618 198.397C232.471 198.877 232.417 199.375 232.343 199.874C232.29 200.25 232.236 200.625 232.181 201C232.102 201.564 232.028 202.13 231.954 202.695C231.388 206.954 231.064 211.241 230.746 215.523C230.595 217.533 230.47 219.548 230.384 221.564C230.338 222.625 230.296 223.684 230.275 224.745C230.266 225.263 230.253 225.779 230.247 226.296C230.234 227.086 230.158 227.909 230.326 228.684C230.353 228.798 230.384 228.907 230.425 229.01C214.557 243.185 202.675 261.535 201.669 282.363C201.203 282.24 200.733 282.126 200.262 282.013C199.43 281.808 198.586 281.634 197.747 281.46C195.948 281.087 194.15 280.736 192.338 280.429C190.576 280.131 188.805 279.867 187.032 279.617C186.158 279.493 185.283 279.367 184.406 279.272C183.986 279.225 183.563 279.179 183.145 279.133C182.786 279.094 182.42 279.036 182.056 279.011C181.471 278.889 180.883 278.767 180.296 278.647C176.301 277.827 172.256 277.195 168.19 276.851C166.758 276.73 165.323 276.62 163.889 276.528C163.282 276.383 162.674 276.247 162.065 276.119C160.006 275.693 157.932 275.345 155.858 275.016C151.767 274.361 147.676 273.726 143.574 273.159C141.481 272.869 139.388 272.629 137.281 272.507C136.216 272.447 135.151 272.443 134.087 272.447C133.016 272.449 131.938 272.567 130.874 272.652C128.849 272.817 126.839 273.136 124.854 273.581C123.715 273.834 122.581 274.102 121.445 274.379C120.94 274.503 120.444 274.648 119.943 274.785C119.521 274.901 119.108 275.055 118.685 275.163L118.689 275.168C118.609 275.19 118.529 275.215 118.446 275.244C118.353 275.278 118.26 275.32 118.175 275.37C117.924 275.122 117.674 274.873 117.431 274.618C110.547 267.929 104.307 260.581 98.7723 252.739C79.9077 226.779 77.0988 192.985 88.0576 163.268C92.9895 146.797 94.6657 129.602 94.7857 112.461C95.0798 98.7529 91.9899 85.1211 93.4604 71.4049C96.2086 48.5419 106.843 26.5572 121.443 8.90192C129.516 -0.31739 139.447 -7.72737 147.349 -17.1115C148.665 -18.6848 149.921 -20.3042 151.107 -21.975H531.289V-21.8458V-21.462V-20.833V-19.9679V-18.872V-17.5559V-16.0275V-10.2462V-7.94892V-5.47893V-2.84541V34.583V38.5432V42.5588V46.6244V50.731V54.8692V59.0338V63.2129V71.5895V75.7699V79.9331V84.0726V88.1779V92.2436V96.2604V100.219V137.648V140.281V142.751V145.05V150.83V152.36V153.676V154.77V155.637V156.264V156.648V156.777L531.289 163.965Z" fill="#F3F3F3"/>
<path fill-rule="evenodd" clip-rule="evenodd" d="M114.324 200.962C111.022 194.644 111.359 187.031 111.666 180.093C113.666 162.777 131.431 155.61 134.346 136.721C138.473 110.646 129.225 92.0031 143.689 66.0399C157.094 38.4415 193.198 38.1725 209.324 12.2896C216.012 3.10467 219.393 -7.9173 225.728 -17.2856C226.869 -18.8259 228.107 -20.4057 229.432 -21.975H232.044C222.192 -10.4242 217.945 5.27005 208.326 17.1927C182.836 47.6607 149.246 38.4045 138.445 86.1651C134.066 107.944 143.384 132.356 130.363 152.139C114.002 175.144 112.111 170.41 114.324 200.962L114.324 200.962Z" fill="#E1E1E1"/>
<path fill-rule="evenodd" clip-rule="evenodd" d="M265.663 71.3243C268.289 63.2629 280.77 56.9752 288.292 53.8234C302.056 48.766 316.902 50.6729 331.072 47.9972C346.213 44.6581 361.557 39.9806 374.08 30.5371C381.973 24.6305 388.255 17.1902 395.337 10.4277C402.767 3.4041 410.81 -3.04453 419.863 -7.86188C427.23 -11.9447 435.468 -14.6204 443.024 -18.206C445.376 -19.3956 447.764 -20.5758 450.006 -21.975H454.354C452.64 -20.7275 450.729 -19.6751 449.147 -18.6689C434.935 -11.3077 419.114 -6.90316 406.717 3.67707C394.775 12.6814 385.889 25.0815 373.631 33.7008C361.931 41.8848 348.046 46.1813 334.291 49.4808C305.252 54.9707 290.336 47.3391 265.663 71.3243Z" fill="#E1E1E1"/>
<path fill-rule="evenodd" clip-rule="evenodd" d="M161.297 146.168C159.102 146.044 158.007 142.147 159.361 141.487C159.023 142.579 159.875 143.808 160.819 144.279C162.439 144.981 165.195 143.031 163.007 141.739C162.194 141.276 161.172 141.444 160.381 141.844C160.249 141.041 160.443 140.201 161.064 139.648C166.648 136.193 169.013 147.59 161.297 146.168V146.168Z" fill="#E1E1E1"/>
<path fill-rule="evenodd" clip-rule="evenodd" d="M113.913 108.615C121.737 107.689 115.991 97.8721 110.628 102.471C109.703 104.964 110.869 108.615 113.913 108.615ZM113.161 110.838C109.709 110.47 107.574 106.493 109.333 103.454C107.485 98.8058 114.497 97.3894 117.286 99.9175C122.966 103.259 119.365 111.629 113.161 110.838Z" fill="#E1E1E1"/>
<path fill-rule="evenodd" clip-rule="evenodd" d="M169.761 13.1647C165.225 11.644 157.185 5.77952 157.147 0.728626C157.432 3.45451 176.104 13.9269 169.761 13.1647Z" fill="#E1E1E1"/>
<path fill-rule="evenodd" clip-rule="evenodd" d="M161.144 16.6657C160.654 14.626 161.483 12.7313 162.239 10.8814C163.481 6.87569 164.531 2.80935 165.803 -1.18842C166.922 3.63739 166.223 13.9997 161.144 16.6657Z" fill="#E1E1E1"/>
<path fill-rule="evenodd" clip-rule="evenodd" d="M503.862 77.1099C520.194 76.0365 512.923 54.8786 498.78 61.3549C493.619 67.4409 493.677 77.9077 503.862 77.1099ZM499.855 79.0814C491.658 77.5807 490.586 65.7516 497.012 61.4169C499.705 54.6662 510.721 57.0584 513.801 62.5101C520.97 71.8428 509.697 82.2174 499.855 79.0814Z" fill="#E1E1E1"/>
<path fill-rule="evenodd" clip-rule="evenodd" d="M512.208 42.6328C509.409 42.2042 507.425 39.7944 505.271 38.1469C501.679 35.381 498.317 31.9568 495.169 28.9535C495.125 29.0128 495.165 29.1474 495.12 29.183C494.941 28.8493 495.15 28.5643 495.538 28.6844C501.501 30.6233 505.715 35.5973 510.737 39.1019C512.812 41.1714 514.305 38.2986 515.742 36.9229C518.699 33.6082 521.416 30.1036 523.855 26.5938C524.66 25.3328 525.885 24.3185 527.281 23.8054C527.099 28.815 522.36 32.3407 519.669 36.2344C517.293 38.4582 515.651 42.2556 512.208 42.6328L512.208 42.6328Z" fill="#E1E1E1"/>
<path fill-rule="evenodd" clip-rule="evenodd" d="M496.077 30.5472C496.08 30.5406 496.085 30.542 496.089 30.5472C496.095 30.5604 496.097 30.5762 496.101 30.5894C497.282 24.5757 501.708 19.9928 505.852 15.7594C511.54 9.01106 520.419 15.5207 526.011 19.2529C529.684 22.6713 527.441 23.3927 524.075 20.9041C520.059 18.3984 514.729 14.1188 509.839 15.8174C504.439 19.729 500.647 26.3218 496.077 30.5472Z" fill="#E1E1E1"/>
<path fill-rule="evenodd" clip-rule="evenodd" d="M338.62 108.859C336.352 100.387 345.271 92.5062 353.287 92.4349C358.741 93.2289 362.088 100.527 368.162 99.1456C375.178 97.7555 373.703 87.9229 379.381 83.3964C391.274 69.9026 398.35 95.2416 407.853 77.948C409.831 75.3471 412.697 73.5468 415.613 72.1645C417.224 71.6251 420.152 71.3983 417.604 73.2408C414.738 75.3708 411.079 76.5605 409.131 79.7839C399.116 97.0512 391.775 74.8261 382.097 83.8607C375.58 88.2421 377.462 99.5505 368.883 101.224C360.452 103.758 356.201 90.8602 348.002 96.0725C343.091 98.4637 339.777 103.656 338.62 108.859Z" fill="#E1E1E1"/>
<path fill-rule="evenodd" clip-rule="evenodd" d="M247.562 103.678C252.913 102.698 250.73 93.9051 244.433 97.5488C244.001 97.5422 242.966 98.3783 243.003 97.802C242.916 97.8639 242.848 97.9668 242.797 98.0328C241.448 101.208 244.33 104.161 247.562 103.678L247.562 103.678ZM246.624 106.085C243.664 106.036 240.417 103.868 240.897 100.594C241.061 99.3753 241.575 97.6081 242.994 97.4275C243.239 92.7618 249.973 92.9081 252.1 96.172C254.985 100.188 252.058 107.185 246.624 106.085L246.624 106.085Z" fill="#E1E1E1"/>
<path fill-rule="evenodd" clip-rule="evenodd" d="M273.817 92.9363C269.854 92.3003 269.218 86.457 272.516 84.521C272.929 84.1924 274.264 83.8375 274.046 84.7929C274.013 84.7744 274.018 84.6609 273.986 84.6187C272.427 84.6794 272.235 87.6578 272.746 88.8943C274.396 92.5457 280.403 89.5264 274.487 84.0737C282.017 81.0161 281.446 94.5859 273.817 92.9363Z" fill="#E1E1E1"/>
<path fill-rule="evenodd" clip-rule="evenodd" d="M291.497 20.5311C298.042 5.0638 329.486 6.40901 350.554 -21.975H353.49C344.396 -9.14008 331.246 0.114183 316.736 6.32065C308.003 10.2916 298.55 13.9079 291.497 20.5311V20.5311Z" fill="#E1E1E1"/>
<path fill-rule="evenodd" clip-rule="evenodd" d="M405.643 372.909C405.613 376.658 406.992 380.83 405.618 384.383C405.487 386.183 405.817 390.363 405.487 394.037C405.453 394.161 405.417 394.284 405.38 394.408C405.271 394.788 405.16 395.168 405.052 395.549C404.794 396.44 404.538 397.332 404.286 398.225C404.166 398.651 404.044 399.078 403.926 399.506C403.796 399.969 403.67 400.431 403.543 400.895C403.182 400.99 402.806 401.039 402.432 401.039C402.004 401.039 401.58 400.976 401.181 400.845C398.756 400.035 396.468 398.858 394.122 397.854C392.508 397.002 390.007 396.663 389.596 394.585C381.424 393.017 373.343 390.684 365.053 389.875C360.142 389.555 355.311 390.635 350.521 391.48L350.539 391.459C350.409 391.467 350.283 391.466 350.161 391.455C346.704 398.96 341.798 406.201 334.313 410.109C334.095 411.099 333.425 412.019 332.37 412.466C328.672 414.634 324.356 415.321 320.255 416.355C316.293 417.269 312.261 418.125 308.198 418.364C303.233 418.194 298.29 416.482 293.86 414.361C285.494 413.377 277.809 409.829 270.205 406.416C261.526 402.476 252.964 398.065 245.603 391.939C242.569 389.443 239.587 386.884 236.533 384.418C236.604 383.822 236.375 383.202 235.903 382.764C234.841 381.782 233.783 380.797 232.738 379.798C232.405 379.465 232.084 379.124 231.785 378.759C231.673 378.609 231.565 378.458 231.458 378.303C231.439 378.25 231.415 378.196 231.391 378.146C232.07 378.143 232.748 378.134 233.429 378.112C234.186 378.089 234.943 378.033 235.696 377.939C236.073 377.894 236.463 377.85 236.835 377.761C236.935 377.737 237.032 377.711 237.127 377.682C237.613 378.044 238.1 378.433 238.579 378.824L238.584 378.828C238.903 379.023 239.231 379.264 239.566 379.556C240.723 378.048 243.069 377.729 243.731 375.718C244.987 370.001 242.324 364.197 242.418 358.419C242.184 343.551 238 329.327 234.025 315.137C233.277 314.898 232.626 314.373 232.295 313.554C227.873 294.231 223.287 296.654 242.247 287.046C250.143 282.887 257.776 277.281 262.495 269.612C264.113 266.601 268.634 268.54 268.113 271.756C268.161 273.043 268.211 274.33 268.29 275.616C268.803 276.277 269.311 276.939 269.891 277.49C275.157 284.075 284.204 282.248 291.608 282.152C296.211 280.385 301.505 279.768 305.651 276.731C308.753 275.186 309.934 269.415 313.976 270.528C315.533 271.426 315.968 272.752 315.764 274.197C316.305 275.135 316.711 276.22 317.329 277.037C319.653 282.536 323.852 282.764 329.108 283.336C335.231 284.231 341.298 285.46 347.428 286.32C352.382 286.823 357.042 288.567 361.475 290.771C362.874 291.331 363.644 293.001 363.056 294.41C362.911 294.78 362.679 295.109 362.395 295.382C363.349 296.294 364.256 297.267 365.206 297.988C368.037 297.819 379.865 308.83 384.951 316.691L384.955 316.698C387.54 319.723 389.784 323.49 390.824 325.149C391.429 326.155 391.992 327.182 392.519 328.228C396.68 333.688 399.087 340.27 400.685 346.946C401.171 348.102 401.605 349.28 401.969 350.486C404.214 357.756 404.916 365.369 405.643 372.909L405.643 372.909Z" fill="#FFBA00"/>
<path fill-rule="evenodd" clip-rule="evenodd" d="M233.858 421.043C235.508 422.885 233.968 425.818 231.701 425.818C231.463 425.818 231.217 425.787 230.963 425.717C228.558 424.643 226.049 424.592 223.452 424.477C222.058 424.618 220.523 425.014 219.399 423.874C218.117 422.354 217.492 419.925 217.154 417.478C217.265 417.244 217.33 416.984 217.335 416.712C217.372 415.144 217.398 413.576 217.398 412.007C217.397 410.62 217.361 409.227 217.386 407.838C218.319 407.274 219.543 407.23 220.597 408.2C222.078 409.794 223.646 411.304 225.214 412.811C228.008 415.645 231.066 418.226 233.858 421.043V421.043Z" fill="#FFBA00"/>
<path fill-rule="evenodd" clip-rule="evenodd" d="M280.26 205.295C286.125 204.619 292.147 211.534 289.316 217.128C287.262 220.923 282.165 223.8 277.865 222.49C268.486 219.404 271.549 206.97 280.26 205.295Z" fill="#FFE0D4"/>
<path fill-rule="evenodd" clip-rule="evenodd" d="M237.435 211.539C242.231 218.169 231.935 228.258 228.141 222.265C227.775 221.439 227.813 220.436 228.211 219.619C226.245 217.159 225.614 212.288 227.718 209.739C230.427 206.618 235.561 208.318 237.435 211.539V211.539Z" fill="#FFE0D4"/>
<path fill-rule="evenodd" clip-rule="evenodd" d="M311.234 198.332C310.841 198.706 310.536 199.186 310.075 199.5C309.339 200.104 308.457 200.275 307.634 200.672C306.881 201.048 306.18 201.512 305.546 202.066C305.176 202.421 304.826 202.785 304.482 203.153C304.28 203.368 304.081 203.585 303.882 203.803C303.223 204.521 302.566 205.234 301.834 205.896C301.026 206.683 300.117 207.409 299.426 208.286H299.427L299.426 208.29L299.427 208.296L299.419 208.304L299.414 208.303C299.769 206.422 300.534 204.535 301.428 202.823C302.599 200.815 304.462 199.239 306.529 198.207C308.043 197.35 309.825 197.197 311.234 198.332V198.332Z" fill="black"/>
<path fill-rule="evenodd" clip-rule="evenodd" d="M305.179 205.497C304.465 204.876 304.127 203.868 303.374 203.3V203.301C303.422 203.376 303.299 203.304 303.344 203.248C304.333 202.826 305.543 203.431 306.248 204.166C306.657 204.588 306.858 205.291 306.562 205.824C306.113 206.002 305.547 205.791 305.179 205.497H305.179Z" fill="black"/>
<path fill-rule="evenodd" clip-rule="evenodd" d="M272.971 202.463C268.718 201.121 267.522 193.734 271.793 191.734C272.256 191.56 272.738 191.53 273.214 191.593C274.187 191.391 275.207 191.403 276.18 191.594C278.132 191.944 280.412 192.81 280.754 195.019C279.561 195.363 278.259 195.301 277.109 194.789C278.502 197.743 277.022 203.331 272.971 202.463Z" fill="black"/>
<path fill-rule="evenodd" clip-rule="evenodd" d="M272.893 200.233C274.209 199.233 274.488 196.254 272.92 195.388C271.07 196.027 271.512 199.29 272.893 200.233ZM272.289 203.06C270.991 202.703 270.274 201.548 269.444 200.599C267.462 198.244 267.746 194.748 270.146 192.796C273.911 189.662 278.094 193.105 277.821 197.461C277.608 199.272 277.243 201.425 275.612 202.498C274.643 203.13 273.412 203.458 272.289 203.06H272.289Z" fill="black"/>
<path fill-rule="evenodd" clip-rule="evenodd" d="M279.378 195.308C276.891 194.804 274.401 194.176 271.87 193.998C271.951 194.113 272.096 194.232 272.161 194.332C272.068 194.295 271.975 194.253 271.881 194.213C271.707 194.11 271.528 194.147 271.359 194.051C271.235 193.969 271.193 193.798 271.228 193.658C271.375 193.255 271.832 193.075 272.184 192.885C274.197 191.901 276.557 191.646 278.726 192.201C280.152 192.491 281.452 193.559 281.895 194.96C281.288 195.401 280.174 195.361 279.378 195.308Z" fill="black"/>
<path fill-rule="evenodd" clip-rule="evenodd" d="M271.012 202.472C268.931 202.334 268.392 199.878 268.351 198.158C268.238 195.956 269.383 193.199 271.759 192.761C272.303 192.629 274.135 192.969 273.726 193.736C273.704 193.632 273.712 193.489 273.567 193.512C272.104 193.536 271.436 194.989 271.321 196.272C271.184 197.669 270.998 199.284 272.028 200.397C272.266 200.636 272.543 201.179 272.908 200.918C272.999 201.951 271.945 202.569 271.012 202.472V202.472Z" fill="black"/>
<path fill-rule="evenodd" clip-rule="evenodd" d="M270.939 203.308C268.13 202.081 268.014 197.906 270.014 195.899C270.143 195.768 270.328 195.578 270.534 195.638C270.684 195.69 270.686 195.901 270.795 195.991C270.787 196.044 270.58 195.874 270.532 195.866C270.185 197.087 270.494 198.363 270.996 199.498C271.229 199.989 271.41 200.551 271.856 200.895C272.721 201.293 273.486 202.111 274.472 202.144C274.629 202.082 274.508 202.263 274.5 202.421C274.15 203.935 272.052 203.989 270.939 203.308Z" fill="black"/>
<path fill-rule="evenodd" clip-rule="evenodd" d="M251.505 217.963C248.265 217.728 241.864 216.524 242.295 212.221C242.498 211.079 243.405 210.123 244.067 209.254C244.711 208.43 245.237 207.654 245.69 206.879C247.045 204.577 247.672 201.963 248.489 199.444C249.033 197.909 249.457 196.246 249.986 194.753L249.987 194.751V194.753V194.751C250.307 196.934 250.52 199.161 250.2 201.356C249.515 204.914 248.079 208.423 245.753 211.215C245.431 211.624 245.12 212.038 244.84 212.476C244.715 212.654 244.696 212.849 244.798 213.043C245.79 214.828 249.038 215.331 250.911 215.734C251.848 215.85 252.932 215.674 253.832 215.834C254.148 215.88 254.479 215.92 254.785 215.946C254.312 217.254 252.858 218.03 251.505 217.963L251.505 217.963Z" fill="black"/>
<path fill-rule="evenodd" clip-rule="evenodd" d="M255.804 231.987C253.797 231.534 251.587 230.746 250.314 229.047C250.122 228.772 250.314 228.583 250.704 228.817C250.694 228.818 250.684 228.819 250.591 228.77C250.615 228.789 250.71 228.794 250.689 228.818C251.873 229.137 253.126 229.047 254.353 229.119C255.851 229.195 257.348 229.385 258.844 229.178C261.002 228.91 263.045 228.006 264.783 226.711C265.477 226.171 266.107 225.549 266.873 225.111C267.514 224.717 268.254 224.598 268.988 224.545C269.004 224.783 269.052 225.013 269.044 225.255C268.891 227.413 266.793 228.677 265.2 229.819C262.461 231.616 259.051 232.401 255.804 231.987L255.804 231.987Z" fill="black"/>
<path fill-rule="evenodd" clip-rule="evenodd" d="M131.068 220.68C130.384 224.218 129.403 227.695 128.375 231.144C131.922 229.484 135.324 227.302 138.557 225.138C135.911 223.375 133.576 221.243 131.242 219.097C131.206 219.627 131.149 220.156 131.068 220.68L131.068 220.68ZM126.92 233.739C125.676 233.382 125.728 231.921 126.009 230.9C126.234 229.861 126.472 228.816 126.778 227.797C127.875 224.372 128.442 220.788 129.763 217.437C128.864 216.089 129.79 214.594 130.528 213.408C131.417 211.934 132.378 210.503 133.313 209.06C137.196 203.023 141.05 196.913 145.696 191.425C148.849 187.852 151.83 184.133 154.9 180.494C156.399 178.753 158.038 177.14 159.757 175.618C160.986 174.669 161.975 172.891 163.697 172.961C164.834 173.095 165.691 173.955 166.513 174.671C168.475 176.477 170.189 178.533 172.174 180.317C173.361 181.437 174.436 182.226 175.542 183.334C176.702 184.682 175.378 186.279 174.552 187.417C170.275 192.94 165.687 198.227 161.462 203.792C158.662 207.643 155.936 211.551 153.069 215.356C150.988 218.15 148.839 220.905 146.505 223.495C145.756 224.326 145.036 225.225 144.032 225.758C143.4 226.094 142.719 226.308 141.999 226.28C142.01 225.864 142.086 225.446 142.212 225.038C142.522 223.976 143.228 223.127 143.999 222.366C145.179 221.139 146.175 219.923 147.238 218.624C149.515 215.845 151.635 212.939 153.721 210.012C157.707 204.234 161.785 198.521 166.41 193.225C168.733 190.384 171.329 187.741 173.402 184.704C171.894 183.408 170.266 182.245 168.897 180.793C167.102 179.014 165.615 176.879 163.526 175.415C161.451 177.499 159.285 179.505 157.306 181.683C154.226 185.261 151.194 188.877 148.044 192.394C143.688 197.491 140.007 203.097 136.294 208.629C134.827 210.994 133.067 213.2 131.843 215.704C133.767 217.339 135.537 219.121 137.387 220.826C138.67 222.252 143.158 224.331 140.735 226.472C137.95 228.604 134.966 230.491 131.793 231.994C130.589 232.585 129.377 233.222 128.103 233.652C127.717 233.775 127.316 233.862 126.92 233.739H126.92Z" fill="black"/>
<path fill-rule="evenodd" clip-rule="evenodd" d="M177.298 186.789C176.824 186.721 176.377 186.51 176.021 186.194C175.768 185.966 175.607 185.705 175.47 185.395C176.381 185.013 177.287 184.324 178.024 183.802C177.758 182.423 176.753 181.006 176.069 179.928C174.977 178.317 173.821 176.728 172.404 175.383C170.207 173.586 167.818 171.627 164.988 171.022C163.466 170.81 163.516 171.824 163.357 172.988C163.346 173.564 162.853 174.815 163.515 175.096C162.385 175.413 161.21 171.943 161.377 171.009C161.477 169.257 163.3 168.103 164.955 168.302C166.648 168.39 168.161 169.295 169.609 170.102C171.601 171.27 173.475 172.651 175.061 174.334C176.836 176.487 182.044 182.608 180.41 185.328C179.761 186.382 178.511 186.965 177.298 186.789V186.789Z" fill="black"/>
<path fill-rule="evenodd" clip-rule="evenodd" d="M177.453 178.721C177.155 178.701 176.883 178.59 176.608 178.52C176.85 177.247 177.818 176.299 178.859 175.605C180.138 174.694 181.334 173.631 182.193 172.304C183.258 170.541 183.449 168.169 182.484 166.323C182 165.374 181.286 164.685 180.18 164.606C177.547 164.174 174.83 165.004 172.485 166.172C171.036 167.019 169.279 167.638 168.337 169.082C168.364 169.121 168.415 169.156 168.461 169.173C168.479 169.193 168.573 169.202 168.566 169.228C168.341 169.239 168.114 169.3 168.059 169.011C168.165 167.159 169.673 165.688 171.068 164.612C173.052 163.114 175.584 162.622 178.003 162.326C179.71 162.264 181.662 162.342 183.038 163.477C185.304 165.731 185.729 169.388 184.674 172.319C183.713 174.716 180.251 178.887 177.453 178.721L177.453 178.721Z" fill="black"/>
<path fill-rule="evenodd" clip-rule="evenodd" d="M136.444 221.938C136.614 219.986 138.051 218.626 139.304 217.268C142.241 213.955 145.054 210.536 147.835 207.091C152.725 201.047 157.487 194.876 162.743 189.142C165.307 186.395 167.79 183.519 170.819 181.271C170.921 181.194 171.083 181.107 171.176 181.236C171.184 181.24 171.191 181.252 171.18 181.252C171.15 181.247 171.13 181.232 171.1 181.229L171.103 181.231C170.016 182.969 169.235 184.809 167.806 186.45C166.516 187.981 165.103 189.403 163.761 190.887C159.719 195.302 156.051 199.983 152.298 204.632C148.675 209.158 145.101 213.729 141.256 218.07C139.869 219.585 138.643 221.633 136.444 221.938L136.444 221.938Z" fill="black"/>
<path fill-rule="evenodd" clip-rule="evenodd" d="M132.433 219.405C132.282 217.516 133.403 216 134.5 214.59C136.689 211.5 138.902 208.429 141.19 205.409C145.804 199.034 150.739 192.898 155.976 187.02C158.382 184.394 160.673 181.63 163.357 179.278C164.042 178.6 164.839 178.069 165.452 177.368C165.485 177.327 165.547 177.328 165.575 177.373C165.647 177.484 165.544 177.668 165.502 177.775C165.225 178.47 164.877 179.136 164.507 179.786C163.019 182.443 160.797 184.564 158.845 186.869C152.865 193.615 147.166 200.607 141.872 207.904C139.8 210.712 137.737 213.531 135.754 216.401C134.985 217.72 133.922 218.933 132.433 219.405H132.433Z" fill="black"/>
<path fill-rule="evenodd" clip-rule="evenodd" d="M122.246 237.224C122.159 237.205 122.17 237.204 122.136 237.118C121.703 235.805 122.639 234.511 123.7 233.816C124.386 233.379 125.801 232.324 126.594 232.804C126.915 233.128 126.516 233.452 126.328 233.711C125.364 235.266 124.373 237.429 122.246 237.224H122.246Z" fill="black"/>
<path fill-rule="evenodd" clip-rule="evenodd" d="M94.5568 169.354C92.8661 169.278 91.26 167.837 91.3444 166.085C88.2573 165.991 86.4124 163.215 88.6687 160.713C87.1022 158.623 86.1131 156.154 84.6018 154.042C83.4849 153.706 82.2782 153.728 81.1258 153.557C77.9173 153.083 74.7168 152.225 71.8289 150.725C66.264 147.779 63.5461 144.433 60.674 138.926C58.3201 133.944 58.9544 127.735 61.8292 123.097C64.2081 119.122 67.9598 116.205 71.7485 113.645C75.9116 110.829 80.7723 108.812 85.7979 108.466C92.762 108.233 98.6962 113.084 102.15 118.788C103.876 121.519 105.309 124.484 105.59 127.743C106.098 131.526 106.242 135.452 104.858 139.036C104.302 140.454 103.371 141.666 102.545 142.932C102.282 143.324 102.042 143.741 102.209 144.221C102.764 146.12 103.66 147.911 104.521 149.689C107.15 149.04 109.304 151.9 107.976 154.286C108.95 154.81 109.92 155.595 110.206 156.71C110.499 157.904 109.781 159.299 108.557 159.596C108.4 158.211 108.362 156.348 106.731 155.887C106.318 155.782 105.883 155.657 105.61 155.304C105.211 154.836 105.317 154.169 105.532 153.643C105.681 153.226 106.068 152.872 106.032 152.406C106.028 152.043 105.71 151.825 105.437 151.641C105.296 151.497 104.936 151.587 104.836 151.631C102.538 152.751 102.179 149.309 101.403 147.91C100.573 145.74 99.1604 143.354 100.992 141.292C104.033 137.644 104.388 132.701 103.738 128.172C103.135 122.546 98.5577 115.587 93.751 112.654C91.0161 110.969 87.7008 110.005 84.4911 110.562C78.8985 111.417 73.8241 114.2 69.4698 117.695C67.3704 119.422 65.3 121.314 63.8322 123.619C60.9786 128.075 60.3127 134.17 62.9646 138.868C64.0195 140.76 65.1509 142.637 66.5765 144.276C70.0394 147.956 74.7735 150.278 79.7121 151.199C80.7051 151.37 81.706 151.471 82.7108 151.546C83.7526 151.649 84.8946 151.587 85.8296 152.125C86.5615 152.584 86.969 153.37 87.3764 154.102C88.2442 155.577 88.9035 157.171 89.8925 158.573C90.3224 159.166 90.8842 159.744 90.9738 160.502C91.0266 160.936 90.9409 161.361 90.7233 161.742C90.4397 162.277 89.5602 163.121 90.5031 163.475C91.5131 163.905 93.0336 163.356 93.5796 164.596C93.8618 165.165 93.5993 165.776 93.6297 166.364C94.1559 167.731 95.8768 168.034 97.1822 167.997C97.5805 167.988 98.0817 167.87 98.4166 167.847C97.3735 168.798 96.0218 169.518 94.5568 169.354L94.5568 169.354Z" fill="black"/>
<path fill-rule="evenodd" clip-rule="evenodd" d="M98.8118 169.988C97.8651 169.771 97.0016 169.366 96.1632 168.987C96.1249 168.845 96.3213 168.821 96.4215 168.807C98.4637 168.647 100.576 168.651 102.493 167.836C105.1 166.871 106.358 164.552 107.298 162.097C107.711 160.862 108.266 159.666 108.945 158.564C109.534 159.167 109.845 159.972 109.85 160.813C109.722 162.796 108.565 164.583 107.571 166.253C105.811 169.161 102.164 170.999 98.8118 169.988V169.988Z" fill="black"/>
<path fill-rule="evenodd" clip-rule="evenodd" d="M91.4323 160.159C91.0273 160.127 90.6171 160.005 90.2108 160.035C90.2147 160.05 90.2821 160.085 90.2583 160.092C89.5117 159.92 93.3964 158.715 93.6325 158.55C95.8196 157.73 97.8022 156.444 99.5448 154.898C100.807 153.766 101.716 152.214 103.316 151.511C103.449 151.449 103.575 151.356 103.697 151.299C103.738 151.564 103.791 151.827 103.8 152.094C103.84 154.519 100.856 156.508 99.1266 157.85C96.9488 159.541 94.1945 160.468 91.4323 160.159H91.4323Z" fill="black"/>
<path fill-rule="evenodd" clip-rule="evenodd" d="M93.6377 164.86C93.0151 164.824 92.4281 164.634 91.8266 164.582C91.8068 164.612 91.8214 164.652 91.8227 164.693L91.8134 164.696C91.7923 164.654 91.7541 164.607 91.758 164.557C91.7686 164.446 91.9559 164.402 92.0271 164.377C92.9491 164.07 93.8646 163.748 94.784 163.434C97.0936 162.477 99.4705 161.578 101.52 160.135C103.041 159.158 103.926 157.885 105.22 156.753C105.64 156.425 106.111 156.199 106.57 155.938C106.599 156.343 106.59 156.77 106.516 157.181C105.967 159.67 103.645 161.235 101.648 162.566C99.274 164.066 96.4882 165.169 93.6377 164.86H93.6377Z" fill="black"/>
<path fill-rule="evenodd" clip-rule="evenodd" d="M92.0941 133.515C93.2677 131.368 93.9601 128.771 93.5077 126.333C93.277 125.219 92.8774 124.061 91.8396 123.457C91.1644 123.059 90.141 123.31 89.9854 124.152C89.2772 127.375 91.0945 130.581 92.0941 133.515V133.515ZM83.9166 133.636C84.1447 133.852 84.3781 134.06 84.6155 134.264C85.5465 122.385 76.0714 125.787 83.9166 133.636ZM80.2149 141.168C81.0589 141.092 81.8356 140.636 82.4224 140.041C80.7727 138.084 77.6275 133.697 74.866 133.887C73.5091 134.55 73.6884 136.58 74.3016 137.727C75.3857 139.887 77.8517 141.145 80.2149 141.168V141.168ZM95.1878 158.787C92.4752 156.378 90.6329 153.08 88.8526 149.945C87.195 147.008 85.3487 144.181 83.4326 141.406C80.9968 143.99 76.9075 142.888 74.4084 140.967C72.9341 139.664 71.7999 137.847 71.7854 135.832C71.6641 132.911 74.1908 130.796 76.9747 132.133C79.7124 133.499 81.6694 136.005 83.5737 138.323C83.8849 137.706 84.1381 137.056 84.2832 136.377C81.1367 134.127 76.7413 128.994 79.9656 125.241C81.3384 123.937 83.5711 124.596 84.6616 125.952C86.7676 128.552 86.5092 132.228 86.1597 135.335C87.5431 136.082 89.3418 136.408 90.6013 135.248C89.4051 131.803 85.3935 123.796 89.8799 121.516C92.5015 120.444 94.866 122.997 95.2392 125.446C96.0463 128.828 94.9399 132.749 92.8273 135.46C94.0207 138.716 94.8858 142.092 96.2758 145.277C97.2899 147.538 98.4385 149.47 99.6056 151.601C100.339 152.745 100.806 154.075 100.686 155.443C98.8935 154.828 98.1484 152.982 97.3057 151.443C96.3998 149.774 95.4727 148.112 94.6748 146.387C93.2994 143.337 92.3829 140.109 91.2448 136.969C89.6267 138.16 87.4798 138.008 85.7325 137.177C85.4727 138.124 85.0995 138.907 84.6735 139.751C87.0143 142.732 88.9739 145.978 90.8848 149.246C92.7455 152.186 94.179 155.355 95.1852 158.682L95.1878 158.673L95.1865 158.674C95.1944 158.657 95.1878 158.599 95.2076 158.607C95.2208 158.655 95.2722 158.777 95.1878 158.787L95.1878 158.787Z" fill="black"/>
<path fill-rule="evenodd" clip-rule="evenodd" d="M173.406 108.069C171.946 107.23 171.037 105.679 169.963 104.424C167.324 101.079 164.749 97.6731 162.629 93.9688C160.421 90.1432 158.095 86.3862 155.716 82.6647C153.351 78.7547 150.867 74.9264 148.234 71.1917C146.963 69.3732 145.889 67.4373 145.296 65.2944C145.221 65.0003 145.069 64.6389 145.218 64.3567C145.268 64.2947 145.376 64.2921 145.45 64.2776L145.453 64.2868C144.875 64.3989 146.173 65.4434 146.246 65.6372C147.109 66.5933 147.961 67.523 148.747 68.5397C152.089 73.1039 155.1 77.8843 158.046 82.7095C162.163 88.8785 165.423 95.6107 170.157 101.355C171.21 102.694 172.278 104.031 173.413 105.305C174.009 106.019 174.6 106.547 175.531 106.316C178.49 105.439 181.004 103.547 183.632 101.989C185.646 100.759 187.744 99.5075 189.681 98.1743C194.958 94.4265 200.126 90.5032 205.703 87.2024C211.805 83.4269 218.051 79.8571 223.71 75.4235C225.443 74.1721 227.272 73.0551 229.031 71.8432C229.937 71.1957 230.867 70.5812 231.724 69.869C232.108 69.6198 232.112 69.1675 231.992 68.7653C230.594 63.3123 226.87 58.8814 223.867 54.2394C221.384 50.8345 219.057 47.3069 216.404 44.0285C212.297 38.8894 207.453 34.3714 203.428 29.173C200.566 30.2174 197.972 31.9291 195.278 33.3375C190.194 36.211 185.353 39.4934 180.655 42.9564C176.415 45.9301 172.137 48.8445 168.046 52.0226C163.085 55.6307 158.017 59.0831 152.776 62.2718L152.824 62.2389C151.753 62.9681 150.761 63.7567 149.752 64.5611C148.853 65.2508 147.721 65.6306 146.596 65.6992C146.798 64.7932 147.349 63.9427 148.003 63.2859C150.387 61.2577 153.031 59.5724 155.713 57.9662C163.068 53.4324 169.786 47.9913 176.876 43.079C183.839 37.9887 190.921 33.025 198.59 29.0438C200.11 28.271 201.57 27.278 203.244 26.8731C204.615 26.5026 205.509 27.7554 206.211 28.7299C207.249 30.0328 208.339 31.1115 209.393 32.3551C212.971 36.4168 216.64 40.4152 219.941 44.7063C222.323 48.077 224.731 51.3804 226.961 54.8263C229.923 59.2638 233.195 63.762 234.142 69.0989C234.357 71.6401 231.184 72.736 229.517 74.0547C225.812 76.3493 222.489 79.1767 218.865 81.59C214.299 84.474 209.702 87.3066 205.07 90.0826C200.825 92.5737 196.838 95.4089 192.878 98.2917C189.416 100.772 185.776 102.99 182.163 105.239C179.748 106.563 176.183 109.344 173.406 108.069L173.406 108.069Z" fill="black"/>
<path fill-rule="evenodd" clip-rule="evenodd" d="M156.75 63.5162C153.936 63.0214 151.698 60.6451 150.744 58.03C149.744 55.754 148.805 52.5966 151.018 50.7216C153.879 48.2965 157.984 49.4722 160.065 52.3129C160.529 53.0623 160.809 53.9807 160.714 54.8581C158.731 54.4201 157.566 52.5702 155.694 51.9461C154.645 51.5899 153.547 51.9118 152.678 52.5491C151.477 53.854 152.889 56.4361 153.473 57.8215C154.233 59.1463 154.975 60.4842 155.811 61.764C156.259 62.3736 156.734 63.098 157.409 63.4384H157.421C157.423 63.4371 157.458 63.4199 157.445 63.4384C157.279 63.598 156.961 63.5374 156.75 63.5162L156.75 63.5162Z" fill="black"/>
<path fill-rule="evenodd" clip-rule="evenodd" d="M171.11 53.2197C171.112 53.2145 171.113 53.1947 171.112 53.1841C167.951 53.2672 165.484 50.5146 164.546 47.6935C163.777 45.6887 163.289 43.0852 165.024 41.4339C167.665 39.0506 171.908 40.8654 173.752 43.4162C174.148 44.0427 174.396 44.8011 174.372 45.5463C173.742 45.4104 173.123 45.1308 172.54 44.8354C171.113 44.0836 169.891 42.638 168.191 42.6038C163.831 42.6051 168.551 49.9805 169.639 51.6792C170.052 52.2635 170.604 52.7133 171.133 53.1459C171.145 53.1723 171.141 53.2066 171.116 53.225L171.11 53.2197Z" fill="black"/>
<path fill-rule="evenodd" clip-rule="evenodd" d="M183.279 45.2856C180.4 44.3613 177.987 41.8955 177.619 38.8284C177.211 36.1306 177.169 32.6191 179.804 31.0236C181.921 29.8026 184.539 30.2614 186.66 31.2372C187.884 31.8319 188.866 33.1558 188.628 34.5627C187.292 34.1487 186.102 33.5382 184.835 33.0332C180.298 31.6222 179.588 34.5878 180.227 38.3854C180.874 40.8894 182.146 43.3011 183.636 45.3819C183.569 45.4333 183.369 45.3146 183.279 45.2856L183.279 45.2856Z" fill="black"/>
<path fill-rule="evenodd" clip-rule="evenodd" d="M197.515 37.2045C195.173 36.9591 192.943 35.5475 192.063 33.3088C191.022 30.6637 191.052 26.9303 193.672 25.2245C195.596 23.768 198.723 24.1005 200.029 26.2179C200.421 26.8102 200.639 27.6083 200.52 28.3075C199.493 27.8775 198.469 27.4197 197.523 26.863C194.477 25.7021 193.59 28.9856 194.113 31.355C194.742 33.6544 196.196 35.7956 198.017 37.2573C197.881 37.2876 197.67 37.215 197.515 37.2045Z" fill="black"/>
<path fill-rule="evenodd" clip-rule="evenodd" d="M188.545 35.1445C188.384 34.6875 187.767 34.3418 187.893 33.7803C188.027 33.1856 188.606 33.7975 188.651 34.1246C188.754 34.4544 188.753 34.8822 188.545 35.1445Z" fill="black"/>
<path fill-rule="evenodd" clip-rule="evenodd" d="M159.689 69.6208C162.982 65.0986 168.255 62.5909 172.859 59.6033C177.77 56.5076 182.698 53.4396 187.647 50.4045C190.863 48.3557 193.986 46.1631 197.277 44.2316C198.828 43.3601 200.213 42.0574 201.996 41.7001C202.54 41.6052 203.104 41.6276 203.642 41.6804C203.244 42.4991 202.699 43.2533 201.967 43.8031C197.86 46.2554 193.751 48.7156 189.748 51.3419C183.17 55.4027 176.64 59.5321 170.083 63.6219C166.747 65.8092 163.459 68.0783 159.751 69.6011C159.774 69.609 159.691 69.6525 159.689 69.6208L159.689 69.6208Z" fill="black"/>
<path fill-rule="evenodd" clip-rule="evenodd" d="M178.065 91.5205C176.577 91.0576 175.563 89.7876 174.548 88.6824C172.526 86.4219 170.514 84.147 168.696 81.7177C165.978 77.8469 162.047 74.6171 160.757 69.9182C160.739 69.8364 160.529 69.1097 160.793 69.239C160.824 69.2601 160.756 69.2456 160.748 69.2522C162.052 70.9125 163.864 72.2472 165.252 73.8852C167.244 76.1971 169.049 78.6646 170.908 81.0807C172.689 83.3702 174.76 85.7058 176.604 87.8318C177.253 88.5215 177.916 89.3154 178.857 89.5871C184.008 89.934 196.473 80.8394 201.074 77.7071C205.771 74.5815 210.294 71.353 214.912 68.2023C215.545 67.717 216.32 67.3267 216.753 66.6382C216.973 65.541 216.323 64.4674 215.875 63.5021C214.677 61.1216 213.266 58.8637 211.619 56.7681C209.852 54.2927 207.886 51.9716 205.947 49.6307C204.546 47.7751 202.075 46.116 202.417 43.5153C204.382 43.9663 205.53 45.7111 206.754 47.1631C208.754 49.57 210.864 51.8938 212.649 54.4668C214.659 57.119 216.284 59.7395 217.722 62.691C218.79 64.6442 219.779 67.2475 217.527 68.78C214.916 70.6527 212.127 72.3435 209.509 74.2043C206.409 76.4846 203.054 78.629 199.904 80.776C195.461 83.7896 183.123 92.784 178.065 91.5205Z" fill="black"/>
<path fill-rule="evenodd" clip-rule="evenodd" d="M165.183 75.2512C165.724 73.1515 171.117 70.4385 173.005 69.1908C179.631 65.0771 186.474 61.3222 193.065 57.1466C196.298 55.1458 199.566 53.2044 202.738 51.106C203.846 50.312 205.162 49.861 206.52 49.9454C206.037 51.259 205.055 52.2719 203.84 52.9367C200.259 55.2236 196.575 57.3418 192.971 59.5931C188.073 62.8878 182.867 65.6693 177.786 68.6632C175.234 70.2341 172.721 71.8853 169.998 73.1515C168.488 73.9349 166.77 74.3781 165.323 75.2406H165.324L165.326 75.2459L165.328 75.2551L165.339 75.2657L165.351 75.2776C165.388 75.3092 165.477 75.3105 165.495 75.3422C165.388 75.3514 165.235 75.3804 165.183 75.2512H165.183Z" fill="black"/>
<path fill-rule="evenodd" clip-rule="evenodd" d="M188.04 86.8561C186.21 86.4196 184.801 85.1574 183.738 83.6538C181.571 80.9752 179.586 78.1659 177.692 75.2881C175.024 71.2774 171.476 67.7046 169.893 63.074C169.853 62.975 169.739 62.586 170.001 62.7178C170.052 62.7377 169.936 62.7324 169.93 62.7469C169.934 62.7561 169.944 62.7706 169.947 62.7746C171.483 64.1 173.143 65.3305 174.443 66.9185C177.131 70.217 179.37 73.8255 181.701 77.3733C182.807 78.9507 184.036 80.4344 185.2 81.967C186.356 83.46 188.16 84.7736 188.04 86.8561Z" fill="black"/>
<path fill-rule="evenodd" clip-rule="evenodd" d="M315.236 68.0024C319.064 64.786 322.451 61.0803 326.064 57.6305C321.669 57.7558 317.358 58.2187 312.947 57.7676C311.893 57.7241 310.813 57.6107 309.894 57.0476C312.196 60.4157 313.328 64.4154 315.236 68.0024ZM313.405 70.5278C311.776 68.2279 310.997 65.4955 309.854 62.9516C308.63 60.2601 307.676 57.4419 307.225 54.5156H307.23C307.384 53.7956 308.619 55.5073 308.861 55.7078C310.843 54.2176 313.4 55.0115 315.672 55.0484C317.86 55.142 320.048 55.113 322.233 54.9627C324.227 54.9323 327.877 54.2848 329.415 55.659C330.934 57.2942 328.947 58.8675 327.797 59.9633C325.448 62.2751 323.142 64.6317 320.701 66.8472C318.977 68.1844 315.601 72.7578 313.405 70.5278V70.5278Z" fill="black"/>
<path fill-rule="evenodd" clip-rule="evenodd" d="M318.991 80.7614C323.572 80.4054 327.239 78.7319 330.55 75.555C337.708 69.0655 342.715 56.4438 336.859 47.7085C334.511 44.0951 331.171 42.0471 327.133 40.7429C323.691 39.6523 320.063 38.8756 316.437 39.1142C311.646 39.5692 306.726 40.6268 302.699 43.3276C301.267 44.198 300.26 45.6143 298.907 46.5098C298.146 47.9089 297.579 49.4031 296.856 50.8207C291.419 61.1992 294.534 72.4599 305.468 77.3485C309.674 79.3596 314.266 80.9975 318.991 80.7614L318.991 80.7614ZM313.201 82.2806C310.766 81.8455 308.453 80.9645 306.217 79.928C301.586 78.0501 297.129 75.1146 294.664 70.648C291.743 65.7054 291.351 59.5455 293.132 54.1519C294.212 51.128 295.493 47.9643 297.975 45.8135C298.539 42.6788 303.497 40.5068 306.145 39.2725C309.835 37.7256 313.882 37.2034 317.849 36.9792C319.884 36.9265 321.887 37.2918 323.873 37.6821C325.859 38.0738 327.849 38.5393 329.707 39.3569C331.571 40.2101 333.476 41.0633 335.067 42.3781C336.972 44.0582 338.596 46.0996 339.798 48.3388C341.614 51.9166 341.869 56.1221 341.266 60.0374C340.851 62.2397 340.107 64.2943 339.342 66.3542C337 71.9127 332.979 76.7234 327.944 80.0414C323.561 82.6815 318.17 83.4886 313.201 82.2806H313.201Z" fill="black"/>
<path fill-rule="evenodd" clip-rule="evenodd" d="M263.831 20.6888C263.327 20.4277 263.2 19.61 263.003 19.1142C261.83 15.729 262.343 12.15 262.422 8.71068C262.506 7.628 262.334 6.49125 262.719 5.45605C263.695 3.31969 266.343 3.9527 268.165 4.376C270.71 4.98261 273.274 5.52331 275.796 6.22222C276.193 2.83703 275.26 -0.544228 274.567 -3.83578C274.358 -4.69823 274.349 -5.72421 275.049 -6.37172C276.484 -7.63902 278.47 -6.49171 280.026 -6.05257C282.576 -5.18221 285.097 -4.21821 287.671 -3.42698C288.016 -6.4271 287.924 -9.46943 287.91 -12.4867C287.915 -14.5241 287.101 -18.0544 290.263 -17.817C293.503 -17.155 296.39 -15.3444 299.457 -14.1668C299.881 -16.8108 299.356 -19.3336 299.123 -21.8998L299.122 -21.975H301.478L301.492 -21.9038C301.695 -19.1067 302.177 -16.253 301.759 -13.4599C301.061 -10.3015 298.568 -11.6928 296.573 -12.6423C294.559 -13.5166 292.609 -14.6006 290.477 -15.1624C290.448 -12.4906 290.476 -9.81889 290.452 -7.14712C290.276 -5.17033 291.097 -0.709064 288.16 -0.664206C287.067 -0.730145 286.053 -1.21938 285.023 -1.5583C282.447 -2.43659 279.906 -3.44674 277.275 -4.15753C277.382 -1.25104 280.637 8.86895 276.138 9.18149C275.231 9.18939 274.364 8.80564 273.493 8.58541C270.828 7.85616 268.144 6.99898 265.388 6.71678C264.92 9.7802 265.065 12.7803 264.748 15.8226C264.58 17.4104 263.956 18.9547 263.878 20.5253C263.899 20.6229 264.001 20.64 264.084 20.6624C264.027 20.6927 263.91 20.702 263.831 20.6888V20.6888Z" fill="black"/>
<path fill-rule="evenodd" clip-rule="evenodd" d="M107.679 52.6286C108.707 51.5697 109.897 50.6677 110.84 49.5296C109.411 47.2943 104.801 43.2353 107.746 40.731C109.198 39.6245 111.077 39.3186 112.608 38.348C112.135 37.6082 111.645 36.8618 111.027 36.2341C109.132 36.7642 107.582 37.9682 105.646 37.8667C103.32 37.4447 102.07 33.4278 99.7913 32.506C98.5899 33.2379 97.618 34.4894 96.8413 35.6274C96.6276 36.0165 96.4601 36.4437 96.5986 36.8882C96.9296 38.0552 97.2791 39.2184 97.618 40.3841C99.0567 40.7165 99.6804 42.3121 98.6967 43.4647C96.9758 45.067 94.7181 46.0982 93.1738 47.9089C94.2407 49.1643 95.2429 50.4752 96.4272 51.608C98.255 50.0637 101.154 46.5836 103.762 48.1673C105.302 49.4149 106.022 51.4695 107.679 52.6287L107.679 52.6286ZM107.638 55.6077C105.224 55.1989 103.642 52.4308 102.195 50.6584C100.743 51.3073 99.6858 52.6023 98.5305 53.656C95.9102 56.3053 93.8279 53.0177 92.1281 51.1292C87.2672 46.4926 93.9691 44.6081 96.6263 41.5051C96.6197 41.3573 96.621 41.211 96.6289 41.0646C94.5875 39.1894 92.6318 36.9422 94.6838 34.2665C95.7493 32.7288 96.9085 31.0883 98.6137 30.2193C101.643 28.8451 104.474 33.3328 106.306 35.2081C109.508 34.4076 111.217 31.8308 113.879 35.4309C114.754 36.4266 116.107 37.6899 115.496 39.1511C114.442 41.4035 111.648 41.7385 109.707 42.924C110.352 44.3377 111.434 45.5035 112.36 46.7378C113.61 48.1528 114.528 49.5151 113.132 51.2295C112.495 52.0668 111.705 52.7737 110.957 53.5096C110 54.3878 109.091 55.7475 107.638 55.6077V55.6077Z" fill="black"/>
<path fill-rule="evenodd" clip-rule="evenodd" d="M121.789 264.518C121.4 261.709 124.418 260.515 126.154 258.95C127.048 258.048 128.265 256.98 127.419 255.643C123.804 249.282 115.993 251.952 112.622 247.268C110.699 244.134 112.989 240.8 115.617 238.965C117.285 237.842 119.318 237.637 121.253 237.351C121.174 237.176 121.017 237.026 120.84 236.973C121.009 236.928 121.257 236.991 121.435 237.048C121.969 237.177 121.982 237.756 121.632 238.1C119.417 240.324 115.612 241.251 114.545 244.474C114.303 248.138 119.914 247.891 122.326 248.966C123.976 249.638 125.666 250.328 127.021 251.513C129.595 253.819 131.598 256.86 128.875 259.939C127.85 261.293 126.417 262.245 125.054 263.227C124.13 264.022 122.91 264.207 121.789 264.518L121.789 264.518Z" fill="black"/>
<path fill-rule="evenodd" clip-rule="evenodd" d="M403.857 141.44C408.433 140.798 412.633 139.644 417.086 138.646C420.71 137.864 424.334 137.075 427.916 136.118C431.269 135.208 434.655 134.431 438.015 133.55C441.367 132.607 444.64 131.415 447.925 130.271C450.934 129.25 453.739 128.016 456.486 126.448C458.472 125.303 461.285 123.573 460.487 120.885C459.721 118.067 458.624 115.35 457.656 112.598C456.554 109.357 455.669 106.045 454.747 102.75C453.766 99.1642 452.853 95.5588 451.6 92.0562C450.916 90.3919 450.437 88.456 449.075 87.219C445.969 85.9121 438.202 88.6973 434.888 89.718C433.389 90.2442 431.992 91.0262 430.804 92.0852C430.238 92.5467 430.08 93.3024 429.935 93.9855C429.696 95.3372 429.567 96.7087 429.319 98.0604C428.723 103.569 424.641 105.327 420.088 107.294C416.893 108.645 413.584 109.704 410.305 110.836C405.979 112.225 401.519 113.181 397.197 114.586C395.774 115.124 393.981 115.895 393.838 117.623C393.815 120.248 394.614 122.787 395.352 125.279C397.1 130.938 399.211 136.66 402.725 141.46C403.104 141.469 403.478 141.469 403.857 141.44L403.857 141.44ZM402.082 144.239C400.742 144.003 399.527 142.676 400.031 141.281C400.332 141.364 400.647 141.46 400.965 141.494C398.625 140.383 397.238 138.043 396.269 135.738C394.887 132.585 393.849 129.297 392.791 126.024C392.143 123.933 391.554 121.814 391.265 119.639C390.841 117.507 391.357 115.254 393.117 113.873C395.05 112.259 397.649 111.752 400.013 111.058C403.523 110.147 407.001 109.121 410.486 108.117C415.057 106.562 419.915 105.096 424.007 102.561C425.738 101.501 426.448 99.5558 426.74 97.6397C427.162 95.6642 427.088 93.5516 427.918 91.6816C429.853 88.2463 434.157 87.2744 437.649 86.1324C440.28 85.3121 442.989 84.7437 445.736 84.5024C447.036 84.3613 448.38 84.2373 449.636 84.687C452.034 85.6246 452.951 88.4929 453.808 90.653C455.86 96.2458 457.249 102.059 458.955 107.764C459.897 110.966 461.106 114.08 462.19 117.235C462.67 118.628 463.06 119.924 463.191 121.312C463.534 125.17 459.672 127.455 456.725 129.053C453.687 130.789 450.444 132.098 447.106 133.124C442.72 134.673 438.313 136.135 433.758 137.1C429.527 138.161 425.327 139.39 421.07 140.325C417.524 141.108 414.143 141.99 410.601 142.71C407.795 143.301 404.994 144.532 402.082 144.239V144.239Z" fill="black"/>
<path fill-rule="evenodd" clip-rule="evenodd" d="M406.357 110.796C406.331 110.787 406.34 110.73 406.352 110.766C407.286 109.847 407.768 108.453 408.433 107.308C408.955 106.294 409.526 105.306 410.036 104.287C410.518 103.408 410.582 102.409 410.637 101.431C410.762 97.4251 411.235 95.2014 415.016 93.2125C417.967 91.672 421.038 90.2674 424.289 89.4984C426.398 89.1159 428.978 87.8273 430.975 89.0658C431.287 89.2676 431.519 89.5578 431.699 89.8809C431.679 89.902 431.637 89.902 431.617 89.9113C430.384 90.7949 428.926 91.1062 427.454 91.3264C425.024 91.7683 422.745 92.5359 420.499 93.5383C418.332 94.5393 415.774 95.2898 414.223 97.1983C413.076 99.24 413.78 101.755 413.226 103.962C412.462 107.047 409.327 109.914 406.357 110.796H406.357Z" fill="black"/>
<path fill-rule="evenodd" clip-rule="evenodd" d="M393.188 117.445C391.627 116.582 391.033 115.117 390.779 113.427C390.488 112.035 390.258 110.598 390.308 109.172C390.264 106.576 391.833 105.086 394.228 104.434C397.128 103.576 400.061 102.836 402.889 101.739C405.707 100.65 408.786 99.3561 411.824 100.195L411.826 100.193C410.397 100.584 409.131 101.525 407.848 102.299C405.946 103.459 403.836 104.204 401.747 104.949C399.551 105.714 397.257 106.141 395.062 106.9C393.693 107.419 392.808 107.692 392.867 109.366C392.816 110.748 393.1 112.107 393.384 113.453C393.793 114.769 393.818 116.212 393.188 117.445H393.188Z" fill="black"/>
<path fill-rule="evenodd" clip-rule="evenodd" d="M402.15 122.351C404.855 120.793 407.868 119.397 410.963 118.582C414.43 117.504 417.884 116.375 421.383 115.404C422.627 114.95 423.907 115.285 425.07 115.792C425.07 115.82 425.022 115.85 425.009 115.87C423.705 118.032 421.406 118.124 419.208 118.757C417.043 119.338 414.88 119.933 412.725 120.553C409.297 121.569 405.77 122.662 402.15 122.351L402.15 122.351Z" fill="black"/>
<path fill-rule="evenodd" clip-rule="evenodd" d="M406.513 127.652C408.78 125.573 411.889 124.375 414.868 123.59C417.336 122.892 419.813 122.243 422.318 121.693C423.667 121.319 425.126 121.165 426.474 121.579C425.73 122.417 424.792 123.081 423.727 123.439C420.67 124.545 417.511 125.334 414.408 126.294C411.881 127.183 409.208 127.453 406.557 127.642L406.559 127.644C406.627 127.677 406.542 127.67 406.513 127.652L406.513 127.652Z" fill="black"/>
<path fill-rule="evenodd" clip-rule="evenodd" d="M491.953 140.253C493.63 135.722 497.314 132.409 500.327 128.762C502.619 125.92 504.255 126.406 506.421 129.049C508.285 131.283 510.157 133.52 511.755 135.957C513.876 133.544 515.494 130.893 517.207 128.247C519.243 124.902 520.959 122.505 523.419 127.221C525.574 130.873 528.914 133.604 531.288 137.093V139.726C530.665 140.003 529.919 139.763 529.283 138.8C528.117 136.734 526.39 135.065 524.877 133.259C523.254 131.45 521.996 129.37 520.657 127.353C518.391 129.975 516.964 132.922 514.958 135.639C513.906 136.881 512.524 139.938 510.551 138.521C509.568 137.609 508.941 136.368 508.151 135.308C506.671 133.295 505.235 131.165 503.296 129.565C500.845 131.728 498.772 134.262 496.587 136.682C495.284 138.067 493.753 139.206 492.288 140.413C492.145 140.563 491.938 140.69 491.876 140.894C491.879 140.91 491.892 140.926 491.9 140.93C491.917 140.936 491.914 140.944 491.898 140.943C491.697 140.943 491.905 140.388 491.954 140.251L491.953 140.253Z" fill="black"/>
<path fill-rule="evenodd" clip-rule="evenodd" d="M427.454 25.2522C430.853 21.751 435.574 20.0433 439.63 17.4507C443.673 15.0243 447.907 12.9527 452.231 11.0814C460.383 7.59873 468.078 3.16527 476.185 -0.409723C477.562 -0.974114 478.894 -1.88006 480.445 -1.71788C480.918 -1.67963 481.351 -1.52139 481.772 -1.38029C481.53 -0.865998 481.284 -0.356974 480.88 0.0518122C480.44 0.526547 479.874 0.898425 479.275 1.14238C477.158 2.01272 475.113 3.04658 473.041 4.01451C469.894 5.45453 466.825 7.05542 463.721 8.5838C458.021 11.3043 452.215 13.8059 446.527 16.5553C440.315 19.6543 434.699 24.6034 427.552 25.2654C427.534 25.2759 427.452 25.301 427.454 25.2522L427.454 25.2522Z" fill="black"/>
<path fill-rule="evenodd" clip-rule="evenodd" d="M428.478 24.5027C426.239 24.5185 424.641 22.7315 422.861 21.6223C421 20.2929 419.118 18.9899 417.137 17.8425C408.11 12.2453 399.201 6.40277 390.067 0.984911C383.547 -2.77119 376.826 -6.17779 370.402 -10.1067C369.346 -10.7305 368.288 -11.3516 367.236 -11.9794C366.282 -12.6019 365.164 -13.1281 364.563 -14.1357C363.745 -15.6379 365.272 -16.7299 366.58 -17.0992C367.875 -17.6004 369.422 -18.1978 370.608 -18.6766C373.448 -19.7884 376.28 -20.912 379.134 -21.975H385.037C382.386 -20.759 379.597 -19.8134 376.933 -18.6317C373.689 -17.3261 370.459 -15.8674 367.223 -14.5723C374.143 -9.85344 381.817 -6.45738 388.986 -2.16717C397.251 2.67302 405.383 7.74403 413.553 12.7425C418.27 15.4184 422.783 18.3278 427.357 21.2253C428.484 21.9138 429.324 23.0229 429.801 24.2468C429.398 24.4407 428.928 24.504 428.478 24.5027L428.478 24.5027Z" fill="black"/>
<path fill-rule="evenodd" clip-rule="evenodd" d="M389.942 25.0772C388.814 23.1201 389.623 20.9613 390.055 18.9317C390.566 16.5592 391.17 14.2277 391.761 11.8948C392.476 8.71653 393.236 5.34971 395.328 2.7768C395.502 2.76362 395.384 2.99835 395.395 3.09463C395.388 3.10649 395.38 3.09067 395.38 3.08409C395.446 7.5257 394.424 11.9251 393.313 16.1716C392.926 17.7198 392.59 19.2746 392.24 20.8321C391.979 22.4621 391.402 24.1554 389.942 25.0772V25.0772Z" fill="black"/>
<path fill-rule="evenodd" clip-rule="evenodd" d="M442.971 41.8545C442.099 39.7497 443.034 37.6251 443.65 35.5902C444.253 33.5896 444.831 31.5772 445.491 29.5937C447.552 23.7964 448.776 17.3633 452.739 12.5326H452.738C452.233 19.1463 449.503 25.2074 447.622 31.5257C446.97 33.5448 446.269 35.552 445.617 37.5723C445.133 39.2195 444.492 40.9089 442.971 41.8545L442.971 41.8545Z" fill="black"/>
<path fill-rule="evenodd" clip-rule="evenodd" d="M424.375 45.3174C417.394 44.8598 410.459 43.2259 404.055 40.3973C399.845 38.5235 396.093 35.6896 392.771 32.5209C390.313 30.3015 388.847 26.8782 390.186 23.6619C390.24 23.4747 390.851 21.9292 390.818 22.5371C392.009 28.9986 394.732 31.0914 399.645 34.9261C407.342 40.6031 418.29 43.0822 427.717 43.1389C431.132 43.0532 434.597 42.6444 437.801 41.4075C439.614 40.8101 441.294 39.854 443.213 39.6193C443.238 39.6167 443.275 39.5877 443.295 39.6022C443.294 39.6404 443.294 39.6787 443.295 39.705C443.415 42.4677 439.727 43.1758 437.663 43.8378C433.427 45.3688 428.838 45.5086 424.375 45.3174H424.375Z" fill="black"/>
<path fill-rule="evenodd" clip-rule="evenodd" d="M473.155 32.2525C473.604 32.1747 474.032 31.9295 474.3 31.5615C473.887 31.7211 473.436 31.8965 473.155 32.2525ZM471.768 34.7647C470.42 34.195 469.988 32.3699 470.568 31.1065C471.115 29.9197 472.367 29.2788 473.546 28.8686C475.082 23.1717 476.707 17.6026 477.882 11.8859C478.804 8.10109 479.23 4.23717 479.322 0.34821C479.303 -0.58152 479.518 -1.63518 479.108 -2.49369H479.107C479.084 -2.49105 479.061 -2.46864 479.049 -2.45676C479.001 -2.40797 478.972 -2.30906 478.93 -2.28137C478.901 -2.78776 479.148 -2.97898 479.609 -2.66908C480.34 -2.16136 480.755 -1.29495 481.069 -0.485229C482.821 4.01562 480.958 9.70994 480.047 14.2939C479.233 18.0827 478.255 21.8793 477.29 25.585C477.312 25.494 477.317 25.4755 477.336 25.4056C476.953 26.8101 476.735 28.262 476.228 29.6296C477.004 30.1557 477.303 31.2041 477.101 32.093C476.645 34.2821 473.787 35.585 471.768 34.7647Z" fill="black"/>
<path fill-rule="evenodd" clip-rule="evenodd" d="M469.209 54.1406C468.261 53.7437 468.522 52.4277 468.59 51.6603C468.725 50.4671 468.958 49.2843 469.181 48.1055C469.57 46.0551 469.953 44.0008 470.393 41.961C469.641 43.9164 468.871 45.8679 468.25 47.8695C467.94 48.836 467.729 49.8513 467.264 50.7584C466.905 51.3887 465.969 51.4599 465.452 51.0063C464.389 49.875 465.275 48.1371 465.696 46.8911C467.632 41.928 469.083 36.5641 471.996 32.1048C472.252 31.7276 472.488 31.3294 472.775 30.9747C472.922 30.8917 472.84 31.2464 472.87 31.3162C473.59 30.8442 474.605 31.3875 474.663 32.2327C474.724 32.7152 474.551 33.215 474.446 33.6844C475.036 35.1137 474.707 36.8278 474.278 38.2097C473.714 40.4921 473.179 42.7811 472.7 45.0834C472.187 47.4502 471.797 49.8486 471.215 52.1996C471.051 53.1767 470.452 54.6851 469.209 54.1406V54.1406Z" fill="black"/>
<path fill-rule="evenodd" clip-rule="evenodd" d="M467.541 445.519V445.524C467.092 445.887 466.602 446.148 466.058 446.34C465.706 446.466 465.331 446.553 464.962 446.597C464.755 446.621 464.549 446.642 464.343 446.642H464.324C463.986 446.641 463.654 446.608 463.319 446.579C461.581 446.431 459.85 446.256 458.116 446.081C450.067 445.279 442.009 444.563 433.953 443.844C425.745 443.113 417.541 442.375 409.336 441.643C400.506 440.853 391.674 440.067 382.841 439.286C381.023 440.846 379.07 442.243 376.947 443.39C376.401 443.72 375.832 444.038 375.243 444.286C374.243 444.899 373.242 445.498 372.28 446.112C369.29 447.957 366.204 449.65 362.905 450.876C357.872 452.872 352.535 453.911 347.251 455.005C337.718 456.793 327.992 457.968 318.282 457.397C307.127 456.882 296 455.49 285.272 452.292C278.346 450.232 271.583 447.55 265.053 444.46C256.873 440.405 249.498 434.962 242.108 429.649C240.685 428.599 239.208 427.624 237.755 426.617C230.887 426.021 224.018 425.426 217.15 424.828H217.003H216.782L216.774 424.795C214.24 424.576 211.707 424.356 209.174 424.133C200.876 423.41 192.579 422.689 184.283 421.959C176.19 421.249 168.095 420.575 160.003 419.875C151.974 419.178 143.944 418.46 135.913 417.758C127.558 417.026 119.203 416.323 110.849 415.59C104.153 415.004 97.4595 414.412 90.7682 413.785C87.5162 413.479 84.2616 413.191 81.0095 412.888C79.4864 412.748 77.9975 412.432 76.5285 412.015C75.6145 411.758 74.7257 411.433 73.8277 411.134C73.8224 411.133 73.8238 411.125 73.8277 411.125C73.9609 411.111 74.0941 411.085 74.2141 411.067C75.8414 410.792 77.4753 410.605 79.1251 410.57C80.0548 410.55 80.9766 410.621 81.9036 410.699C82.9942 410.79 84.0862 410.881 85.178 410.973C89.1949 411.313 93.2158 411.623 97.2339 411.963C105.477 412.658 113.72 413.385 121.96 414.12C136.749 415.437 151.54 416.696 166.329 418.002C163.336 415.469 160.486 412.764 157.818 409.889C149.759 400.436 143.073 389.89 137.419 378.845C135.719 375.408 134.258 372.188 133.071 368.605C132.381 366.673 131.879 364.647 131.824 362.592C127.806 361.077 124.362 359.145 122.982 356.678C122.732 356.243 122.542 355.784 122.401 355.31C122.003 354.957 121.656 354.557 121.45 354.043C120.941 352.645 120.702 351.159 120.349 349.712C120.104 349.044 119.74 345.269 120.159 343.402C119.937 343.414 119.712 343.385 119.488 343.306C117.963 342.599 117.005 341.081 115.924 339.851C113.767 337.378 112.51 334.362 111.426 331.305C110.2 328.002 108.79 324.697 108.032 321.26C107.997 321.024 107.932 320.791 107.988 320.553C107.996 320.543 108.007 320.526 108.019 320.517C106.551 317.83 105.516 314.911 104.939 311.899C104.767 310.862 104.366 307.203 104.887 305.96C102.791 302.091 101.687 297.536 103.388 293.358C103.553 293.006 103.722 292.613 103.975 292.307C103.456 290.862 103.117 289.353 103.27 287.833C103.807 285.376 105.981 284.123 108.398 284.73C109.045 284.871 109.646 285.152 110.212 285.493C109.932 280.706 110.783 274.855 113.559 273.584C117.176 271.623 121.327 271.181 125.376 271.074C128.071 270.993 130.777 270.95 133.476 271.023C141.727 271.495 149.965 272.353 158.17 273.332C165.455 274.39 172.769 275.248 180.052 276.294C192.525 278.334 204.827 281.235 217.217 283.695C218.658 284.027 220.151 284.268 221.554 284.748C221.252 284.125 221.115 283.427 221.21 282.735C221.355 280.952 221.73 279.191 222.08 277.441C223.059 272.629 223.476 267.493 221.834 262.778C220.192 257.872 217.312 253.551 214.835 249.053C211.505 243.105 209.415 236.352 209.728 229.486C210.034 222.592 212.224 215.953 215.272 209.807C217.198 205.732 219.584 201.789 220.66 197.376C221.124 195.194 220.828 192.895 220.38 190.748C219.724 187.492 218.789 184.298 218.276 181.015C217.55 175.86 217.445 170.541 218.532 165.431C219.25 161.966 220.308 158.566 221.796 155.349C223.307 152.157 225.249 149.195 227.13 146.213C230.665 140.239 235.317 134.997 240.826 130.771C245.011 127.658 249.489 124.857 254.421 123.094C261.033 120.823 268.066 119.805 275.036 120.608C278.133 120.88 281.309 121.218 284.217 122.383C284.668 122.569 285.106 122.792 285.521 123.044C285.372 122.101 285.328 121.172 285.365 120.481C285.392 118.44 286.349 115.153 289.013 116.353C290.689 117.424 291.387 119.42 292.248 121.124C294.01 118.839 295.93 116.527 298.368 114.943C299.419 114.347 300.857 114.297 301.698 115.272C303.149 117.197 301.848 120.719 300.987 122.718C308.798 121.716 315.708 122.304 322.956 125.567C329.588 128.659 335.442 133.321 340.272 138.795C345.113 144.698 349.041 151.439 351.465 158.69C353.283 164.165 354.38 169.865 354.659 175.626C355.162 181.335 354.872 187.074 353.742 192.695C352.739 197.964 351.362 203.247 351.482 208.65C352.142 216.615 358.083 222.65 362.348 228.976C364.448 232.095 366.539 235.231 368.268 238.573C369.989 241.993 371.321 245.609 372.351 249.295C373.754 254.3 374.385 259.472 374.777 264.643C375.133 268.598 375.267 272.622 374.895 276.573C374.596 282.146 373.68 287.683 371.623 292.89C370.709 294.817 369.943 297.661 367.809 298.387C367.829 298.412 367.847 298.439 367.866 298.466C367.846 298.472 367.828 298.478 367.808 298.483C370.01 299.483 371.947 301.039 373.842 302.525C378.584 306.584 382.74 311.292 386.87 315.962C391.806 322.011 395.485 329.008 398.665 336.111C402.542 344.664 404.75 353.858 406.37 363.079C407.375 369.251 407.237 375.538 407.081 381.769C406.879 388.061 406.238 394.375 404.756 400.504C402.736 408.103 399.959 415.538 396.352 422.529C394.221 426.603 391.36 430.229 388.36 433.692C387.334 434.887 386.267 436.05 385.145 437.158C388.446 437.439 391.749 437.721 395.05 438.006C403.493 438.738 411.934 439.468 420.377 440.175C428.515 440.856 436.65 441.57 444.789 442.246C448.842 442.582 452.893 442.918 456.949 443.232C458.737 443.369 460.528 443.485 462.315 443.638C462.68 443.67 463.046 443.703 463.411 443.734C463.869 443.777 464.338 443.79 464.784 443.91C465.26 444.038 465.7 444.189 466.138 444.414C466.459 444.58 466.754 444.783 467.035 445.01C467.223 445.159 467.384 445.337 467.541 445.519L467.541 445.519ZM404.619 384.117C404.342 388.579 403.811 393.033 402.957 397.423C402.634 398.855 402.277 400.282 401.885 401.7C401.513 399.845 399.891 398.717 398.259 398.007C396.469 397.066 394.74 396.401 392.712 395.693C389.181 394.466 385.682 393.128 382.045 392.251C372.81 390.15 363.209 388.31 353.735 389.674C352.992 389.823 352.221 390.033 351.467 390.296C352.41 386.425 352.8 382.41 352.739 378.43C352.853 373.394 352.189 368.353 350.731 363.527C350.184 361.916 349.443 360.336 348.342 359.024C348.268 358.938 348.147 358.767 348.025 358.746L348.023 358.752L348.024 358.755C348.245 359.144 348.214 359.644 348.265 360.1C348.385 361.777 348.43 363.576 348.706 365.263C349.153 367.73 349.654 370.192 349.852 372.697C350.346 379.074 350.093 385.756 348.206 391.9C348.009 392.035 347.821 392.174 347.642 392.318C347.787 392.314 347.932 392.31 348.078 392.308C347.22 394.989 346.043 397.564 344.474 399.96C335.442 413.236 318.255 417.947 302.932 415.763C293.767 414.469 284.885 411.603 276.234 408.368C272.026 406.865 267.982 404.948 264.114 402.714C260.648 400.773 257.581 398.645 254.33 396.233C250.785 393.724 247.217 391.237 243.915 388.404C242.05 386.783 240.159 385.193 238.285 383.583C236.333 381.885 234.554 380.009 232.48 378.45C232.432 378.349 232.388 378.248 232.343 378.146C234.558 379.164 236.936 379.82 239.391 379.857C244.019 380.017 246.055 376.472 245.638 372.269C245.48 369.442 245.102 366.63 244.79 363.815C244.192 357.738 243.569 351.525 242.261 345.53C241.368 341.496 240.424 337.672 239.426 333.622C238.505 329.508 237.396 325.445 236.114 321.429C235.02 317.477 234.023 313.498 232.849 309.567C231.546 304.834 230.38 300.063 229.1 295.326C229.729 295.212 230.386 295.15 231.012 294.932C232.915 294.002 234.631 292.335 236.497 291.229C238.82 289.699 241.244 288.327 243.742 287.104C245.889 286.026 248.181 285.029 250.286 283.826C251.548 283.042 252.683 282.075 253.722 281.014C253.753 281.443 253.859 281.877 254.062 282.313C255.951 287.089 260.429 290.23 264.835 292.526C270.789 295.624 277.516 297.239 284.185 297.785C293.288 298.197 302.422 295.805 310.458 291.591C313.253 289.96 315.905 288.004 318.243 285.783C318.571 285.364 318.832 284.883 318.992 284.375C322.276 287.437 326.881 288.517 331.239 289.036C335.835 289.514 340.449 288.751 345.051 288.972C347.374 289.076 349.602 289.758 351.639 290.87C354.118 292.164 356.556 293.542 358.902 295.071C360.665 296.296 362.469 297.483 364.438 298.364C365.004 298.652 365.615 298.761 366.229 298.749C367.04 299.576 367.79 300.472 368.641 301.259C370.548 303.01 372.716 304.454 374.564 306.279C378.838 310.456 383.085 314.714 386.787 319.415C392.221 326.959 396.361 335.37 399.489 344.117C401.73 351.001 403.36 358.111 404.403 365.273C405.133 371.531 404.888 377.83 404.619 384.117V384.117ZM401.869 401.754C400.138 408.015 397.759 414.127 394.914 419.967C391.379 426.882 386.329 433.013 380.617 438.243C380.374 438.456 380.131 438.665 379.885 438.872C379.825 438.918 379.763 438.962 379.704 439.008L379.721 439.009C379.225 439.422 378.723 439.823 378.211 440.213C372.371 443.833 366.455 447.461 359.908 449.665C353.521 451.669 346.908 452.958 340.294 453.938C333.904 454.884 327.458 455.511 320.991 455.32C313.196 455.026 305.352 454.412 297.659 453.022C289.931 451.574 282.44 449.277 275.143 446.335C263.544 442.085 253.291 435.026 243.474 427.651C241.995 426.526 240.454 425.482 238.938 424.407L238.934 424.386L238.904 424.383C237.499 423.388 236.114 422.364 234.822 421.224C229.175 415.813 223.667 410.252 217.804 405.07C216.469 403.856 215.124 402.65 213.787 401.437C212.585 400.36 211.471 399.135 209.976 398.498C208.464 397.104 206.978 395.681 205.561 394.185C202.539 390.969 199.246 388.023 196.244 384.791C192.678 380.849 189.101 376.91 185.653 372.863C182.69 369.537 179.75 366.182 177.184 362.532C174.622 358.825 171.719 355.323 169.775 351.219C169.434 350.215 169.031 349.183 169.225 348.103C169.232 348.033 169.239 347.966 169.248 347.902C171.261 351.736 173.745 355.321 176.468 358.682C178.036 360.676 179.696 362.6 181.476 364.407C182.509 365.575 183.729 366.613 185.32 366.854C184.984 364.419 182.713 362.985 181.304 361.148C180.06 359.703 178.835 358.21 177.63 356.696C174.747 353.221 166.564 341.488 169.103 337.196C170.301 337.353 171.225 338.296 172.157 339.036C173.663 342.301 175.74 345.292 177.723 348.279C180.019 351.744 182.65 354.974 185.408 358.08C186.825 359.587 188.081 361.482 190.234 361.94C189.927 359.495 187.787 357.964 186.349 356.128C183.675 353.087 181.31 349.768 179.055 346.406C176.712 342.598 173.877 338.835 172.992 334.37C172.909 333.9 172.793 333.395 172.775 332.907C172.868 332.81 172.956 332.704 173.039 332.59C172.955 332.546 172.87 332.507 172.786 332.468C172.833 332.048 172.989 331.653 173.346 331.325C173.627 331.159 174.029 331.491 174.327 331.583C175.036 331.971 175.723 332.384 176.403 332.815C177.504 337.014 180.839 341.831 182.802 344.65C185.195 348.148 188.177 351.168 191.228 354.089C192.425 355.14 193.408 356.504 194.86 357.217C195.314 357.429 195.815 357.597 196.294 357.704C196.06 356.741 195.682 355.789 195.003 355.049C192.442 352.364 189.713 349.834 187.287 347.022C184.674 343.939 176.394 332.91 178.31 329.045C178.335 329.04 178.358 329.034 178.381 329.028C178.412 329.024 178.442 329.017 178.472 329.012C178.431 329.016 178.388 329.017 178.347 329.018L178.329 329.028L178.335 329.02C178.363 329 178.392 328.98 178.421 328.963L178.397 328.995C179.894 329.12 180.97 330.298 181.981 331.308C184.906 334.184 187.859 337.03 190.747 339.944C195.199 344.25 199.828 348.374 203.923 353.042C206.325 355.558 208.633 358.225 211.625 360.058C211.884 360.444 212.207 360.79 212.592 361.08C212.659 360.953 212.728 360.826 212.791 360.696C212.907 360.743 213.027 360.771 213.122 360.73C213.023 360.684 212.94 360.618 212.866 360.539C213.05 360.151 213.208 359.748 213.303 359.324C213.487 358.611 213.447 357.874 213.375 357.149C213.287 355.039 212.973 352.929 212.338 350.912C211.571 348.105 210.106 345.279 210.466 342.309C213.402 343.796 215.574 346.381 217.767 348.765C220.857 352.397 222.629 356.757 224.165 361.334C225.189 364.311 226.022 367.348 226.887 370.372C227.607 372.948 228.553 375.902 230.383 377.956C231.176 380.031 233.034 381.442 234.463 383.096C237.622 386.368 241.172 389.247 244.672 392.144C253.419 398.701 262.235 405.4 272.377 409.671C284.56 414.183 297.164 418.812 310.317 418.825C325.165 419.098 340.891 412.269 348.265 398.905C349.372 396.783 350.254 394.564 350.932 392.281C351.016 392.281 351.102 392.28 351.186 392.279C354.478 392.234 357.742 391.631 361.041 391.83C370.995 392.289 380.878 394.254 390.233 397.688C393.241 398.692 396.141 399.973 398.943 401.44C399.878 401.781 400.895 401.913 401.869 401.754ZM314.942 285.344C310.813 289.075 305.749 291.466 300.514 293.224C293.164 295.613 285.288 296.364 277.698 294.587C271.128 293.31 264.691 290.677 259.653 286.19C258.083 284.706 256.583 282.906 256.142 280.739C256.248 279.671 257.053 278.805 257.598 277.915C259.158 275.661 260.853 273.315 262.853 271.389C263.734 270.402 264.804 269.235 266.095 268.898C266.122 269.426 266.143 269.952 266.158 270.48C266.112 272.075 266.167 273.77 267.127 275.077C267.358 276.18 268.247 277.255 268.923 278.045C272.696 281.631 278.81 283.368 283.94 283.389C288.71 283.567 293.424 282.641 297.959 281.227C300.183 280.482 302.444 279.798 304.562 278.78C306.572 277.812 308.417 276.46 309.998 274.897C310.524 274.215 310.792 273.364 310.719 272.518C311.008 272.804 311.289 273.099 311.563 273.403C314.076 276.434 315.255 280.362 317.907 283.282C316.776 283.7 315.809 284.486 314.942 285.344H314.942ZM312.062 207.14C314.107 204.232 314.734 200.435 314.222 196.954C313.713 195.161 313.25 192.912 311.399 192.058C308.838 190.967 305.687 191.958 303.648 193.705C301.897 195.281 300.152 196.894 298.667 198.714C298.664 198.736 298.628 198.736 298.627 198.71C298.617 198.536 298.661 198.343 298.686 198.172C299.088 195.062 300.863 192.171 303.607 190.601C303.664 190.569 303.721 190.537 303.779 190.504C302.713 190.111 301.83 189.267 300.996 188.503C296.573 184.354 294.015 178.649 292.342 172.934C292.094 172.126 291.858 171.313 291.583 170.515C291.243 169.732 291.124 168.717 290.456 168.145C289.483 167.862 288.437 167.921 287.438 167.773C282.432 167.179 277.427 165.665 273.581 162.283C271.614 160.694 269.798 158.765 268.695 156.491C267.696 158.595 266.085 160.077 263.821 161.752C261.934 163.167 259.849 164.279 257.673 165.182C254.478 166.589 251.221 167.876 247.86 168.839C243.055 170.076 238.273 171.839 233.299 172.119C233.663 174.128 234.043 176.137 234.161 178.172C236.179 176.71 239.641 176.201 241.583 176.29C243.887 176.303 245.717 177.967 244.628 180.313C243.905 181.774 242.32 182.548 240.861 183.089C238.744 183.942 236.343 183.224 234.173 183.828C234.122 186.366 233.973 188.906 233.683 191.429C234.421 190.82 235.703 190.676 236.982 190.772C238.617 190.58 240.383 190.793 241.751 191.753C242.392 192.229 243.036 192.951 243.088 193.792C242.248 194.072 241.322 194.201 240.435 194.044C240.29 194.003 240.143 193.961 239.999 193.915L239.993 193.913C241.619 197.533 240.287 201.975 235.653 202.159C234.045 201.966 232.948 201.021 232.315 199.767C231.654 203.576 231.045 207.396 230.738 211.251C230.222 219.122 230.18 227.278 233.126 234.723C235.123 239.322 238.057 243.654 242.294 246.448C245.816 248.594 249.74 250.242 253.854 250.764C256.83 251.23 259.864 250.981 262.807 250.424C262.848 250.354 262.907 250.307 262.98 250.315C262.94 250.333 262.916 250.366 262.907 250.403C263.774 250.239 264.631 250.047 265.475 249.841C272.438 248.073 278.656 244.118 283.978 239.38C286.886 236.823 289.736 234.127 291.974 230.95C292.574 229.955 293.586 229.295 294.595 228.797C294.914 230.892 293.833 232.485 292.609 234.048C290.192 237.049 287.221 239.566 284.297 242.059C279.729 245.952 274.475 249.05 268.84 251.126C267.334 251.677 265.723 252.042 264.164 252.343C264.817 253.224 265.473 254.106 265.917 255.121C267.573 258.757 268.414 262.735 268.764 266.701C268.902 268.261 268.946 269.825 268.987 271.388C269.099 272.613 268.9 273.92 268.177 274.913C278.02 282.661 287.442 282.16 298.882 278.406C301.751 277.532 304.498 276.273 306.763 274.272C307.222 273.888 307.566 273.395 308 272.99C308.571 272.459 309.287 272.099 310.015 271.844C307.904 269.893 305.513 268.247 303.431 266.269C300.631 263.251 299.01 259.386 297.95 255.459C296.982 252.088 296.238 248.632 295.969 245.132C295.786 241.727 296.055 238.306 296.616 234.946C297.014 232.667 297.51 230.408 298.046 228.158C299.013 224.066 299.981 219.733 302.605 216.395C302.163 216.408 301.716 216.391 301.265 216.343C299.666 216.255 297.974 214.982 297.969 213.296C299.874 213.019 301.775 213.776 303.668 213.369C307.171 212.577 309.98 209.953 312.062 207.14ZM242.564 375.31C243.213 373.452 242.746 371.413 242.645 369.495C242.418 366.76 242.079 364.032 241.836 361.3C241.236 352.408 239.228 343.713 237.069 335.091C236.05 330.578 234.86 326.116 233.436 321.714C231.367 313.788 229.027 305.937 226.952 298.014C225.83 293.548 224.868 290.983 223.481 289.38C223.388 289.458 223.292 289.535 223.195 289.609C222.396 290.176 221.48 290.61 220.518 290.89C222.091 293.13 223.05 295.739 223.824 298.35C228.988 315.081 233.817 331.954 237.934 348.966C239.3 354.725 240.014 360.601 240.995 366.431C241.334 368.546 241.571 370.714 241.839 372.832C241.974 373.906 242.162 375.025 242.067 376.096C242.26 375.883 242.429 375.623 242.564 375.31ZM240.574 376.923C239.092 377.255 237.206 376.787 235.766 376.837C234.632 376.818 233.506 376.819 232.356 376.899C232.189 376.914 232.02 376.924 231.85 376.935C231.653 376.425 231.466 375.909 231.273 375.4C229.846 372.177 228.968 368.776 227.969 365.405C226.455 360.191 224.63 354.961 221.685 350.37C219.992 347.607 217.703 345.297 215.466 342.98C213.432 340.973 208.719 337.42 208.154 342.489C207.896 345.242 208.888 347.909 209.63 350.519C210.359 352.722 210.713 355.014 210.837 357.328C210.837 357.39 210.837 357.452 210.838 357.513C210.442 356.942 210.023 356.377 209.555 355.819C206.721 352.723 203.979 349.537 201.039 346.541C198.828 344.366 196.532 342.288 194.276 340.162C191.267 337.317 188.327 334.399 185.367 331.506C183.971 330.168 182.708 328.623 180.987 327.694C180.377 327.319 179.679 327.055 179.004 326.973C180.744 325.239 181.752 322.503 180.63 320.164C179.951 318.74 178.687 317.725 177.527 316.701C175.096 314.52 171.985 313.488 168.743 314.078C166.597 314.423 164.789 315.834 163.249 317.291C161.312 319.491 159.931 322.6 160.454 325.566C161.329 329.756 164.215 333.157 168.584 333.779C169.228 333.932 169.924 333.995 170.592 333.919C170.677 334.536 170.825 335.155 170.991 335.761C169.602 334.569 167.574 334.817 166.874 336.799C165.781 339.748 167.126 342.952 168.174 345.732C168.282 345.967 168.394 346.199 168.508 346.431C167.367 347.134 166.813 348.682 166.804 349.975C166.871 352.58 168.592 354.741 169.878 356.891C171.776 359.679 173.778 362.392 175.753 365.124C177.304 367.156 178.922 369.131 180.581 371.074C178.976 370.667 177.296 370.48 175.702 370.051C171.723 369.114 167.685 368.483 163.671 367.716C159.53 366.957 155.426 366.012 151.297 365.199C144.054 363.754 131.447 361.616 125.956 356.717C125.136 355.774 124.511 354.692 123.995 353.559C123.991 353.17 123.932 352.78 123.795 352.392C123.234 350.266 122.828 348.087 122.008 346.039C121.672 345.085 121.195 344.166 120.929 343.188C121.482 342.909 121.921 342.376 122.078 341.762C122.804 338.635 121.158 334.439 119.502 331.283C120.238 331.246 120.945 330.912 121.414 330.313C123.528 327.842 121.979 323.356 120.485 320.882C120.226 320.49 119.951 320.113 119.659 319.745C123.11 319.767 122.708 314.407 121.53 312.071C121.383 311.698 121.231 311.325 121.065 310.96C122.799 311.188 124.329 310.418 124.838 308.545C125.08 307.22 124.62 305.868 124.077 304.672C122.451 301.494 120.354 298.582 118.144 295.786C116.651 293.85 115.088 291.906 113.113 290.449C113.118 290.414 113.125 290.378 113.129 290.342C113.138 290.29 113.147 290.237 113.154 290.184H113.155C113.299 289.583 113.279 288.95 113.081 288.367L113.08 288.364C113.052 288.152 113.022 287.942 112.997 287.731C112.744 285.385 112.737 283.012 113.022 280.665C113.18 279.741 113.324 278.768 113.65 277.874C114.13 277.888 114.614 277.838 115.082 277.701C116.749 277.46 118.265 277.465 120.022 277.345C124.243 277.056 128.488 277.462 132.699 277.77C136.637 277.977 140.551 278.317 144.478 278.67C158.499 279.798 172.456 281.677 186.223 284.57C190.879 285.421 195.576 286.035 200.213 286.995C205.658 288.085 211.269 289.705 216.722 291.123C217.887 291.328 219.109 291.258 220.272 290.957C220.523 293.79 221.093 296.755 221.972 299.512C226.729 315.624 231.805 331.652 235.768 347.989C237.556 355.558 238.5 363.297 239.617 370.985C239.762 372.319 239.905 373.572 240.061 374.958C240.094 375.652 240.278 376.311 240.574 376.923H240.574ZM234.212 423.973C233.875 423.694 233.544 423.406 233.22 423.109C229.427 419.348 225.575 415.641 221.73 411.932C221.194 411.415 220.661 410.895 220.133 410.37C219.418 409.857 218.719 409.327 218.031 408.783C219.096 412.267 219.295 415.983 219.337 419.62C219.302 420.591 219.359 421.64 219.299 422.662C219.592 422.687 219.885 422.714 220.179 422.74C224.855 423.153 229.534 423.564 234.211 423.973H234.212ZM221.777 288.736C222.016 288.694 222.31 288.627 222.622 288.549C220.478 286.827 217.33 286.543 211.693 285.335C199.691 282.692 187.522 279.997 175.368 278.265C167.176 277.23 158.985 275.968 150.805 275.106C144.496 274.61 138.194 273.914 131.864 273.737C126.765 273.829 121.359 273.48 116.53 275.347L116.481 275.367C116.871 275.346 117.259 275.329 117.638 275.303C119.829 275.259 122.022 275.154 124.214 275.148C126.742 275.172 129.252 275.484 131.64 275.683C136.253 275.927 140.85 276.333 145.451 276.761C159.464 277.946 173.414 279.802 187.167 282.753C194.114 284.08 201.169 284.798 207.986 286.75C211.138 287.498 214.212 288.639 217.42 289.104C218.897 289.134 220.32 288.906 221.777 288.736V288.736ZM216.617 422.314C216.729 420.757 216.703 419.195 216.66 417.634C216.576 414.34 216.264 411.038 216.779 407.768C215.348 406.584 213.957 405.349 212.579 404.098C209.266 401.249 206 398.342 202.978 395.181C199.84 391.941 196.415 388.979 193.444 385.577C189.937 381.541 186.292 377.618 182.763 373.599C182.286 373.712 181.796 373.759 181.296 373.708C178.33 373.248 175.445 372.34 172.498 371.769C171.351 371.56 170.206 371.346 169.06 371.127C170.766 372.648 172.305 374.185 173.95 375.801C177.132 378.682 180.49 381.375 183.892 383.99C187.086 386.452 190.175 388.601 193.697 390.468C195.455 391.38 197.3 392.139 199.126 392.834C199.653 393.03 200.118 393.305 200.563 393.642C200.944 393.94 201.33 394.259 201.679 394.577C200.672 394.957 199.597 395.156 198.543 394.887C191.488 392.701 185.375 388.351 179.659 383.787C175.481 380.335 170.796 377.056 168.187 372.176C167.963 371.738 167.727 371.291 167.532 370.831C160.994 369.554 154.483 368.147 147.949 366.844C144.5 366.092 138.624 364.942 133.367 363.146C133.586 363.605 133.807 364.065 134.015 364.54C135.298 367.58 136.306 370.733 137.677 373.74C140.201 379.446 143.402 384.821 146.593 390.172C150.093 395.887 153.913 401.535 158.222 406.65C159.911 408.787 161.736 410.81 163.751 412.642C165.869 414.585 167.999 416.518 170.214 418.346C170.307 418.354 170.399 418.363 170.49 418.371C185.86 419.74 201.232 421.069 216.605 422.425C216.608 422.388 216.613 422.351 216.617 422.314H216.617ZM178.575 326.658C178.901 324.718 179.02 322.627 177.9 320.917C176.824 319.595 175.504 318.436 174.007 317.611C169.659 315.144 164.854 317.828 163.287 322.27C162.526 323.986 162.868 325.844 163.724 327.454C164.664 329.603 166.583 331.134 168.889 331.572C169.486 331.648 170.053 331.721 170.599 331.819C170.642 331.57 170.705 331.324 170.789 331.081C171.656 329.062 173.584 328.36 175.278 329.957C175.571 330.233 175.827 330.536 176.06 330.859C176.008 330.168 176.043 329.509 176.184 328.898C176.498 327.528 177.425 326.977 178.488 326.949C178.511 326.848 178.551 326.745 178.575 326.658V326.658ZM121.778 308.602C116.327 308.232 109.269 298.112 106.994 293.445C106.331 291.851 105.702 290.04 105.669 288.277C105.963 286.932 107.248 286.733 108.371 287.213C109.241 287.598 109.906 288.3 110.64 288.887L110.649 288.934C110.311 288.761 109.891 288.566 109.6 288.302C109.576 288.272 109.559 288.239 109.573 288.199L109.566 288.197C109.55 288.215 109.53 288.242 109.533 288.267C109.712 288.934 110.245 289.462 110.613 290.036C110.833 290.361 111.06 290.68 111.293 290.995C111.305 291.019 111.315 291.044 111.327 291.066C111.55 291.449 111.832 291.79 112.141 292.099C113.447 293.746 114.851 295.311 116.122 296.988C117.032 298.304 125.004 308.227 121.778 308.602L121.778 308.602ZM119.684 328.891C118.377 329.636 114.14 325.36 113.253 324.258C110.988 321.44 109.026 318.356 107.921 314.883C107.328 313.134 106.896 311.334 106.259 309.599C105.902 308.556 105.468 307.543 105.177 306.48C105.58 307.185 106.017 307.866 106.472 308.515C108.642 311.587 111.764 315.384 115.241 317.779C115.351 318.018 115.479 318.247 115.629 318.462C115.94 318.877 116.29 319.299 116.612 319.711L116.643 319.75C118.281 321.743 119.798 323.987 120.122 326.612C120.169 327.378 120.308 328.32 119.684 328.891L119.684 328.891ZM120.057 341.167C120.661 338.289 118.224 333.933 116.946 331.353C116.709 330.975 116.53 330.577 116.403 330.164C114.107 328.728 111.958 326.289 110.508 324.321C111.231 325.516 111.825 326.818 112.357 328.087C113.515 330.683 114.345 333.434 115.704 335.938C116.917 337.853 118.319 339.698 120.057 341.167ZM119.744 317.57C120.833 315.665 119.361 313.1 118.435 311.372C118.032 310.699 117.583 310.043 117.151 309.382C112.162 306.232 107.54 299.286 105.057 294.855C104.809 294.325 104.561 293.78 104.331 293.225C104.297 294.878 104.688 296.552 104.814 298.144C105.324 303.074 108.156 307.419 111.334 311.03C113.365 313.191 116.836 316.972 119.744 317.57H119.744ZM108.663 321.635C108.443 321.272 108.231 320.903 108.028 320.532L108.023 320.546C108.199 320.927 108.421 321.287 108.663 321.635V321.635Z" fill="black"/>
<path fill-rule="evenodd" clip-rule="evenodd" d="M284.823 183.365C285.301 183.937 285.234 184.87 284.694 185.383C283.904 186.099 282.782 186.138 281.773 186.077C279.306 185.935 276.837 185.741 274.366 185.886C270.106 186.026 263.292 185.857 262.711 180.39C262.652 180.382 262.593 180.405 262.549 180.39C262.717 179.948 262.696 179.486 262.755 179.021C262.718 178.537 263.013 178.909 263.125 179.192C264.878 177.229 267.87 177.876 270.213 177.96C273.244 178.147 276.152 179.091 279.017 180.043C279.953 180.377 280.847 180.802 281.724 181.27C282.803 181.873 284.014 182.398 284.823 183.365H284.823Z" fill="black"/>
<path fill-rule="evenodd" clip-rule="evenodd" d="M180.656 112.046C180.225 111.289 181.147 110.9 181.646 110.541C184.875 108.167 188.224 105.768 191.498 103.489C194.746 101.185 198.03 98.9148 201.29 96.6325C201.762 96.2924 202.419 95.6753 202.934 96.2884C203.173 96.5798 203.147 97.0716 202.829 97.3023C197.836 100.919 192.778 104.352 187.752 107.917C185.699 109.343 183.742 110.908 181.656 112.284C181.326 112.498 180.86 112.379 180.656 112.046V112.046Z" fill="black"/>
<path fill-rule="evenodd" clip-rule="evenodd" d="M208.328 93.731C207.301 92.7152 209.299 91.8737 209.931 91.2945C211.834 89.9557 213.842 88.7764 215.834 87.5799C216.401 87.2792 217.21 86.5035 217.729 87.2739C217.93 87.605 217.83 88.0614 217.494 88.2619C215.235 89.6061 212.982 90.9622 210.818 92.4567C210.308 92.8221 209.78 93.1783 209.317 93.6017C209.071 93.8893 208.636 93.9592 208.328 93.731Z" fill="black"/>
<path fill-rule="evenodd" clip-rule="evenodd" d="M394.249 33.1788C393.871 33.1339 393.539 32.7594 393.608 32.3677C393.78 31.3998 393.953 30.4397 394.115 29.5654C394.626 26.5362 395.384 23.6996 395.691 20.71C395.688 20.1628 396.23 19.8542 396.692 20.0296C397.508 20.4001 397.067 21.4498 397.008 22.1277C396.877 22.9822 396.701 23.9053 396.551 24.7282C396.147 26.916 395.7 29.0867 395.3 31.2204C395.093 31.9062 395.269 33.2328 394.249 33.1788H394.249Z" fill="black"/>
<path fill-rule="evenodd" clip-rule="evenodd" d="M397.967 35.8515C397.577 35.7525 397.358 35.3595 397.444 34.9757C398.13 31.8868 398.74 28.7715 399.648 25.7379C399.786 24.6775 401.3 24.8714 401.096 25.9173C400.295 28.8321 399.652 31.7865 398.977 34.733C398.892 35.3015 398.701 36.0124 397.967 35.8515Z" fill="black"/>
<path fill-rule="evenodd" clip-rule="evenodd" d="M413.049 382.14C413.721 368.757 412.481 354.937 407.367 342.456C406.743 341.695 407.727 340.703 408.438 341.454C409.905 344.15 410.681 347.194 411.521 350.135C413.205 356.336 414.184 362.72 414.53 369.132C414.788 373.457 414.69 377.796 414.483 382.121C414.467 383.042 413.078 383.094 413.049 382.14H413.049Z" fill="black"/>
<path fill-rule="evenodd" clip-rule="evenodd" d="M410.409 399.841C409.48 399.403 410.275 398.342 410.419 397.651C410.752 396.608 411.045 395.552 411.302 394.487C411.659 392.967 412.044 391.331 412.206 389.796C412.235 389.417 412.51 389.098 412.911 389.093C413.819 389.124 413.645 390.111 413.558 390.743C413.385 391.91 413.163 393.069 412.899 394.219C412.554 395.773 412.115 397.306 411.58 398.804C411.414 399.372 411.146 400.103 410.409 399.841H410.409Z" fill="black"/>
<path fill-rule="evenodd" clip-rule="evenodd" d="M175.433 265.386C174.268 264.816 175.725 263.355 176.017 262.583C177.163 260.532 178.379 258.519 179.571 256.494C180.028 255.899 180.329 254.487 181.321 254.937C181.674 255.133 181.806 255.59 181.612 255.941C180.074 258.709 178.347 261.371 176.841 264.159C176.521 264.69 176.238 265.685 175.433 265.386H175.433Z" fill="black"/>
<path fill-rule="evenodd" clip-rule="evenodd" d="M164.703 260.894C164.826 257.794 164.863 254.691 164.915 251.588C164.937 250.342 164.957 249.098 165.019 247.949C165.083 247.395 164.966 246.735 165.341 246.275C165.681 245.897 166.353 245.995 166.549 246.469C166.702 246.845 166.465 247.287 166.504 247.671C166.288 252.105 166.398 256.538 166.163 260.97C166.077 261.852 164.696 261.788 164.703 260.894Z" fill="black"/>
<path fill-rule="evenodd" clip-rule="evenodd" d="M153.306 261.59C152.382 259.481 151.559 257.328 150.772 255.162C150.577 254.323 149.32 252.29 150.797 252.086C151.184 252.077 151.53 252.407 151.527 252.799C151.684 253.463 151.935 254.106 152.159 254.726C152.931 256.844 153.763 258.923 154.63 261.003C154.998 261.869 153.705 262.455 153.306 261.59Z" fill="black"/>
<path fill-rule="evenodd" clip-rule="evenodd" d="M156.302 424.937C148.433 424.136 140.581 423.393 132.705 422.908C125.223 422.395 117.644 422.266 110.213 421.356C109.309 421.197 109.483 419.818 110.438 419.939C122.023 421.166 133.679 421.201 145.259 422.412C149.016 422.759 152.772 423.138 156.526 423.519C157.44 423.676 157.247 425.053 156.302 424.937H156.302Z" fill="black"/>
<path fill-rule="evenodd" clip-rule="evenodd" d="M180.411 427.016C176.628 426.646 172.916 426.344 169.174 426.035C168.235 425.959 167.291 425.888 166.352 425.821C165.754 425.81 164.898 425.73 165.006 424.925C165.066 424.522 165.463 424.267 165.837 424.325C170.798 424.684 175.741 425.097 180.635 425.598C181.558 425.757 181.348 427.132 180.411 427.016Z" fill="black"/>
</g>
</svg>
