<svg width="20" height="20" viewBox="0 0 20 20" fill="none" xmlns="http://www.w3.org/2000/svg">
<path d="M19.9259 9.76327C19.7684 9.53409 15.9834 4.1665 9.99995 4.1665C4.86569 4.1665 0.29062 9.50327 0.0981168 9.73077C-0.0327056 9.88578 -0.0327056 10.1133 0.0981168 10.2691C0.29062 10.4966 4.86569 15.8334 9.99995 15.8334C15.1342 15.8334 19.7092 10.4966 19.9018 10.2691C20.0226 10.1258 20.0334 9.91828 19.9259 9.76327ZM9.99995 15C5.88407 15 1.97065 11.075 0.97649 9.99996C1.96901 8.92412 5.87825 4.99988 9.99995 4.99988C14.8159 4.99988 18.2151 8.91912 19.0451 9.97746C18.0867 11.0183 14.1508 15 9.99995 15Z" fill="black"/>
<path d="M9.99939 6.6665C8.16104 6.6665 6.66602 8.16153 6.66602 9.99988C6.66602 11.8382 8.16104 13.3332 9.99939 13.3332C11.8377 13.3332 13.3328 11.8382 13.3328 9.99988C13.3328 8.16153 11.8377 6.6665 9.99939 6.6665ZM9.99939 12.5C8.62105 12.5 7.49935 11.3783 7.49935 9.99992C7.49935 8.62157 8.62105 7.49988 9.99939 7.49988C11.3777 7.49988 12.4994 8.62157 12.4994 9.99992C12.4994 11.3783 11.3777 12.5 9.99939 12.5Z" fill="black"/>
</svg>
