<svg width="16" height="13" viewBox="0 0 16 13" fill="none" xmlns="http://www.w3.org/2000/svg">
<path fill-rule="evenodd" clip-rule="evenodd" d="M12.0481 1.21359C11.6605 1.22307 11.3019 1.39261 11.0076 1.63113C11.4774 3.08645 11.3476 4.72712 10.6548 5.99921C10.8076 6.20824 10.9668 6.36831 11.1316 6.47993L12.8778 7.46243C13.4098 7.80783 13.684 8.39596 13.6893 9.05044V11.7468H15.5591C15.8666 11.7152 15.9977 11.4246 16.0004 11.1197V8.56972C16.0004 8.29119 15.9066 8.09583 15.7182 7.98475L13.0191 6.45833C13.7191 5.84703 14.0707 4.93035 14.0773 3.99207C14.0587 3.24968 13.8671 2.55992 13.4862 2.0276C13.088 1.51581 12.5943 1.2178 12.0485 1.21253L12.0481 1.21359ZM3.93321 1.21365C3.34034 1.2405 2.87013 1.54431 2.51325 2.02872C2.11815 2.61211 1.92571 3.30397 1.92216 3.9932C1.9466 5.01151 2.33104 5.97611 3.01591 6.47999L0.28221 7.98481C0.09377 8.06853 0 8.26334 0 8.56978V11.1192C0.01467 11.4573 0.16266 11.7416 0.44088 11.7463H2.25816V9.04997C2.28838 8.32915 2.57415 7.74628 3.08747 7.46196L4.90386 6.43786C5.04519 6.34045 5.1803 6.20777 5.30963 6.04033C4.56076 4.67135 4.45677 3.03122 4.93942 1.58906C4.62565 1.3616 4.27277 1.21522 3.93367 1.21259L3.93321 1.21365ZM7.95755 0C6.57981 0 5.46251 1.54484 5.46251 3.45087C5.46251 4.77246 5.99983 5.92082 6.7887 6.5L5.87361 7.00231L3.43901 8.34022C3.20391 8.47975 3.08658 8.71564 3.08658 9.04998V12.2265C3.10614 12.6235 3.30702 12.9937 3.63323 13H12.2948C12.6672 12.9616 12.8552 12.6062 12.8592 12.2265V9.04998C12.8592 8.71563 12.7419 8.47922 12.5068 8.34022L10.1602 7.00231L9.18508 6.45525C9.9415 5.86238 10.4526 4.73929 10.4526 3.45088C10.4526 1.54485 9.33574 9.99999e-06 7.95756 9.99999e-06L7.95755 0Z" fill="#FFBA00"/>
</svg>
