<svg width="20" height="20" viewBox="0 0 20 20" fill="none" xmlns="http://www.w3.org/2000/svg">
<path fill-rule="evenodd" clip-rule="evenodd" d="M9.08253 6.85434C9.08253 6.10122 9.55603 5.4907 10.1401 5.4907C10.7242 5.4907 11.1977 6.10122 11.1977 6.85434V15.0362C11.1977 15.7893 10.7242 16.3998 10.1401 16.3998C9.55603 16.3998 9.08253 15.7893 9.08253 15.0362V6.85434Z" fill="white"/>
<path fill-rule="evenodd" clip-rule="evenodd" d="M9.99893 3.30232C9.49686 3.30232 9.08984 3.70934 9.08984 4.21141C9.08984 4.71349 9.49686 5.1205 9.99893 5.1205C10.501 5.1205 10.908 4.71349 10.908 4.21141C10.908 3.70934 10.501 3.30232 9.99893 3.30232Z" fill="white"/>
<path d="M0.65 10C0.65 4.83614 4.83614 0.65 10 0.65C15.1639 0.65 19.35 4.83614 19.35 10C19.35 15.1639 15.1639 19.35 10 19.35C4.83614 19.35 0.65 15.1639 0.65 10Z" stroke="white" stroke-width="1.3"/>
</svg>
