<svg width="20" height="20" viewBox="0 0 20 20" fill="none" xmlns="http://www.w3.org/2000/svg">
<path fill-rule="evenodd" clip-rule="evenodd" d="M11.9063 18.7922C12.5541 17.912 13.0907 16.5924 13.4596 15H17.4773C16.2007 16.9031 14.2173 18.2911 11.9063 18.7922ZM2.52314 15H6.54084C6.90979 16.5924 7.44636 17.912 8.09412 18.7922C5.78315 18.2911 3.79975 16.9031 2.52314 15ZM8.09406 1.20784C7.44629 2.08791 6.90979 3.40755 6.54084 5.00002H2.52314C3.79975 3.09694 5.78309 1.70888 8.09406 1.20784ZM17.4773 5.00002H13.4596C13.0907 3.40754 12.5542 2.08791 11.9064 1.20784C14.2174 1.70888 16.2007 3.09694 17.4773 5.00002ZM13.9884 9.50002C13.9638 8.26088 13.8523 7.08022 13.6634 6.00002H18.0488C18.5803 7.0652 18.9039 8.24794 18.9731 9.50002H13.9884ZM13.9884 10.5H18.9731C18.9039 11.7521 18.5803 12.9348 18.0488 14H13.6634C13.8523 12.9198 13.9638 11.7391 13.9884 10.5ZM6.0121 9.50002H1.02735C1.09662 8.24794 1.42017 7.0652 1.95167 6.00002H6.33711C6.14821 7.08022 6.03669 8.26088 6.0121 9.50002ZM12.6531 6.00002C12.8439 7.03499 12.9666 8.20833 12.9926 9.50002H7.0127C7.0387 8.20833 7.16138 7.03499 7.35218 6.00002H12.6531ZM9.99886 1.00002C10.7904 1.00002 11.8112 2.47499 12.4349 5.00002H7.56283C8.18655 2.47499 9.2073 1.00002 9.99886 1.00002ZM1.02735 10.5H6.0121C6.0367 11.7391 6.14821 12.9198 6.33711 14H1.95167C1.42018 12.9348 1.09662 11.7521 1.02735 10.5ZM7.35217 14C7.16137 12.965 7.03869 11.7917 7.01269 10.5H12.9925C12.9665 11.7917 12.8439 12.965 12.6531 14H7.35217ZM9.99886 19C9.2073 19 8.18655 17.525 7.56283 15H12.4349C11.8112 17.525 10.7904 19 9.99886 19ZM10 0C4.47717 0 0 4.47711 0 10C0 15.5228 4.47717 20 10 20C15.5228 20 20 15.5228 20 10C20 4.47711 15.5228 0 10 0Z" fill="white"/>
</svg>
