<svg width="42" height="42" viewBox="0 0 42 42" fill="none" xmlns="http://www.w3.org/2000/svg">
<circle cx="21" cy="21" r="21" fill="url(#paint0_linear_190_27227)"/>
<path fill-rule="evenodd" clip-rule="evenodd" d="M28.3661 14.1555C28.3661 13.9486 28.1922 13.7842 27.9856 13.7958C25.535 13.9362 23.2404 15.0437 21.6059 16.875C21.546 16.9423 21.5136 17.0296 21.5149 17.1197L21.6492 26.0581C21.6536 26.3535 21.9919 26.5184 22.2274 26.34C23.9012 25.0683 25.9226 24.3366 28.0226 24.2423C28.2148 24.2334 28.3661 24.0749 28.3661 23.8825V14.1555ZM14.0148 13.7958C13.8082 13.7842 13.6343 13.9486 13.6343 14.1555V23.8826C13.6343 24.075 13.7856 24.2334 13.9778 24.2424C16.1307 24.3396 18.1998 25.1058 19.8968 26.4342C20.1353 26.6205 20.4834 26.4475 20.4789 26.1449L20.3415 16.951C20.3402 16.8617 20.3058 16.7761 20.2449 16.7107C18.619 14.9759 16.3886 13.9323 14.0148 13.7958ZM11 16.6546C11 16.1023 11.4477 15.6546 12 15.6546H12.463V24.8265C12.4628 24.9057 12.4788 24.9841 12.5099 25.057C12.5409 25.1298 12.5865 25.1956 12.6438 25.2503C12.7011 25.305 12.7689 25.3475 12.8431 25.3752C12.9173 25.4029 12.9963 25.4153 13.0755 25.4115C15.4013 25.3114 17.6798 26.0888 19.4594 27.5896L20.2125 28.2252H12C11.4477 28.2252 11 27.7774 11 27.2252V16.6546ZM31 27.2252C31 27.7774 30.5523 28.2252 30 28.2252H21.7879L22.5406 27.5896C24.3205 26.089 26.5992 25.3116 28.9251 25.4115C29.0041 25.4149 29.083 25.4023 29.1571 25.3746C29.2312 25.347 29.2989 25.3047 29.3563 25.2503C29.4136 25.1956 29.4591 25.1298 29.4901 25.0569C29.5212 24.9841 29.5371 24.9057 29.5369 24.8265V15.6546H30C30.5523 15.6546 31 16.1023 31 16.6546V27.2252Z" fill="white"/>
<defs>
<linearGradient id="paint0_linear_190_27227" x1="21" y1="0" x2="21" y2="42" gradientUnits="userSpaceOnUse">
<stop stop-color="#FFD17C"/>
<stop offset="1" stop-color="#F1B23F"/>
</linearGradient>
</defs>
</svg>
