<svg width="63" height="62" viewBox="0 0 63 62" fill="none" xmlns="http://www.w3.org/2000/svg">
<path fill-rule="evenodd" clip-rule="evenodd" d="M0 31C0 13.8792 13.8792 0 31 0C48.1208 0 62 13.8792 62 31C62 48.1208 48.1208 62 31 62C13.8792 62 0 48.1208 0 31Z" fill="#D3D3D3" fill-opacity="0.62"/>
<mask id="mask0_6_5044" style="mask-type:alpha" maskUnits="userSpaceOnUse" x="1" y="0" width="62" height="62">
<path fill-rule="evenodd" clip-rule="evenodd" d="M1 31C1 13.8792 14.8792 0 32 0C49.1208 0 63 13.8792 63 31C63 48.1208 49.1208 62 32 62C14.8792 62 1 48.1208 1 31Z" fill="white"/>
</mask>
<g mask="url(#mask0_6_5044)">
<path fill-rule="evenodd" clip-rule="evenodd" d="M17.0222 62.9996C15.0033 60.8201 12.5957 59.2553 9.88689 59.4459C9.88689 59.4459 9.75455 60.5798 9.6608 62.9996H17.0222Z" fill="#5CA0CD"/>
<path fill-rule="evenodd" clip-rule="evenodd" d="M26.6146 49.9999V38.6181H35.1193V49.9999H26.6146Z" fill="#F7A67B"/>
<path fill-rule="evenodd" clip-rule="evenodd" d="M50.1073 54.9236C47.7439 51.2623 44.026 50.2696 44.026 50.2696L35.1179 46.9684H26.6159L17.7126 50.2696C17.7126 50.2696 13.9947 51.2623 11.6299 54.9236H50.1073Z" fill="#F7A67B"/>
<path fill-rule="evenodd" clip-rule="evenodd" d="M50.1681 62.9998L51.852 59.6485C50.7046 52.0467 44.0249 50.2686 44.0249 50.2686L35.1181 46.9684L29.4797 50.3831L26.6174 46.9684L17.7153 50.2686C17.7153 50.2686 11.0343 52.0467 9.88693 59.6485L11.1074 62.9998H50.1681Z" fill="#2CADA8"/>
<path fill-rule="evenodd" clip-rule="evenodd" d="M20.2794 38.7459C22.0469 43.1684 24.2731 44.1616 24.2731 44.1616L27.1054 44.3389C28.6702 43.9284 31.3267 42.9222 31.3267 42.9222C37.3576 39.9501 39.4679 39.806 40.3424 36.3533C40.3693 36.2471 42.4934 18.7213 42.4934 18.7213C42.1478 9.7991 32.6811 9.17284 31.2564 9.12732C29.8391 8.99074 20.7324 7.69752 19.2449 16.4983C19.2449 16.4983 16.6946 26.809 20.2794 38.7459Z" fill="#F7A67B"/>
<path fill-rule="evenodd" clip-rule="evenodd" d="M20.3573 36.5164C21.5592 38.8251 23.7608 41.5091 26.6616 41.4739C28.8204 41.4484 31.3544 40.5227 33.3415 39.6874C35.4825 38.7879 38.2205 37.9512 40.0712 36.573C40.1629 36.5054 40.2497 36.4302 40.3407 36.3598L40.3421 36.3557C40.369 36.2495 42.4927 18.7222 42.4927 18.7222C42.1473 9.79919 32.6824 9.17287 31.2578 9.12734C29.8409 8.99075 20.7359 7.69742 19.2486 16.499C19.2486 16.499 17.0484 25.4276 19.6265 36.2833C19.8782 36.1646 20.1912 36.1957 20.3573 36.5164Z" fill="#F7A67B"/>
<path fill-rule="evenodd" clip-rule="evenodd" d="M38.1416 38.9036C34.6311 40.5484 32.623 41.6751 29.9161 42.6169C25.7745 44.0561 23.5898 44.3079 20.2559 38.6593C20.2663 38.689 20.2704 38.7159 20.2801 38.7442C22.0481 43.1682 24.2748 44.1617 24.2748 44.1617L27.1079 44.3391C28.6731 43.9285 31.3303 42.9219 31.3303 42.9219C36.0576 40.5919 38.3713 39.9951 39.5743 38.184C39.1135 38.4447 38.6334 38.6738 38.1416 38.9036V38.9036Z" fill="#E29971"/>
<path fill-rule="evenodd" clip-rule="evenodd" d="M40.3425 36.359C46.8733 28.4027 46.3961 17.1955 46.3961 17.1955C47.0395 2.06157 29.127 4.22326 29.127 4.22326C22.7728 4.13702 22.9135 1 22.9135 1C19.8774 3.23208 20.7579 6.78019 20.7579 6.78019C19.6512 6.73466 19.5733 4.73917 19.5733 4.73917C15.5746 7.83414 17.9122 12.1168 17.9122 12.1168C17.1358 16.4395 18.4377 27.8867 18.4377 27.8867C18.4377 27.8867 18.799 16.4181 21.8854 13.9612C21.8854 13.9612 24.9787 12.5045 27.1625 14.3247C27.1625 14.3247 37.4837 10.3276 38.8566 20.8167L40.1861 29.9532L40.3425 36.359Z" fill="#39393B"/>
<path fill-rule="evenodd" clip-rule="evenodd" d="M39.6512 28.7732C39.6512 28.7732 40.7668 25.1656 43.4843 26.8603C43.4843 26.8603 44.715 27.5866 43.6354 30.0434C43.6354 30.0434 42.0672 33.5785 39.436 32.0778L39.6512 28.7732Z" fill="#F7A67B"/>
<path fill-rule="evenodd" clip-rule="evenodd" d="M38.8592 20.8181C38.8592 20.8181 39.6464 26.9026 38.949 30.2764L40.1677 30.3543C40.1677 30.3543 40.245 26.1027 42.3876 25.7704L38.8592 20.8181Z" fill="#39393B"/>
<path fill-rule="evenodd" clip-rule="evenodd" d="M54.3381 63C53.976 60.7337 53.6891 59.2899 53.576 58.9576C53.576 58.9576 52.6869 51.816 44.9251 53.0742C44.9251 53.0742 38.8276 54.9986 39.9271 63L54.3381 63Z" fill="#28A19C"/>
<path fill-rule="evenodd" clip-rule="evenodd" d="M29.4817 50.382L26.5246 45.7537L21.8828 48.2127L25.3648 53.8084L29.4817 50.382Z" fill="#28A19C"/>
<path fill-rule="evenodd" clip-rule="evenodd" d="M29.481 50.3848L35.1202 45.1451L39.7808 48.0794L33.623 54.15L29.481 50.3848Z" fill="#28A19C"/>
</g>
</svg>
