<svg width="62" height="62" viewBox="0 0 62 62" fill="none" xmlns="http://www.w3.org/2000/svg">
<mask id="mask0_212_10138" style="mask-type:alpha" maskUnits="userSpaceOnUse" x="0" y="0" width="62" height="62">
<path fill-rule="evenodd" clip-rule="evenodd" d="M0 31C0 13.8792 13.8792 0 31 0C48.1208 0 62 13.8792 62 31C62 48.1208 48.1208 62 31 62C13.8792 62 0 48.1208 0 31Z" fill="white"/>
</mask>
<g mask="url(#mask0_212_10138)">
<path fill-rule="evenodd" clip-rule="evenodd" d="M17.0222 63.0001C15.0033 60.8206 12.5957 59.2558 9.88689 59.4464C9.88689 59.4464 9.75455 60.5803 9.6608 63.0001H17.0222Z" fill="#5CA0CD"/>
<path fill-rule="evenodd" clip-rule="evenodd" d="M26.6146 49.9999V38.6181H35.1193V49.9999H26.6146Z" fill="#F7A67B"/>
<path fill-rule="evenodd" clip-rule="evenodd" d="M50.1092 54.9231C47.7459 51.2619 44.028 50.2691 44.028 50.2691L35.1198 46.9679H26.6179L17.7146 50.2691C17.7146 50.2691 13.9967 51.2619 11.6319 54.9231H50.1092Z" fill="#F7A67B"/>
<path fill-rule="evenodd" clip-rule="evenodd" d="M50.1681 62.9993L51.852 59.648C50.7046 52.0462 44.0249 50.2681 44.0249 50.2681L35.1181 46.9679L29.4797 50.3827L26.6174 46.9679L17.7153 50.2681C17.7153 50.2681 11.0343 52.0462 9.88693 59.648L11.1074 62.9993H50.1681Z" fill="#2CADA8"/>
<path fill-rule="evenodd" clip-rule="evenodd" d="M20.2794 38.7464C22.0469 43.1689 24.2731 44.1621 24.2731 44.1621L27.1054 44.3394C28.6702 43.9289 31.3267 42.9227 31.3267 42.9227C37.3576 39.9506 39.4679 39.8065 40.3424 36.3538C40.3693 36.2476 42.4934 18.7218 42.4934 18.7218C42.1478 9.79959 32.6811 9.17333 31.2564 9.1278C29.8391 8.99122 20.7324 7.69801 19.2449 16.4988C19.2449 16.4988 16.6946 26.8094 20.2794 38.7464Z" fill="#F7A67B"/>
<path fill-rule="evenodd" clip-rule="evenodd" d="M20.3593 36.5169C21.5611 38.8256 23.7627 41.5095 26.6635 41.4744C28.8223 41.4488 31.3563 40.5232 33.3435 39.6878C35.4844 38.7884 38.2225 37.9517 40.0731 36.5735C40.1648 36.5059 40.2517 36.4307 40.3427 36.3603L40.3441 36.3562C40.371 36.25 42.4946 18.7227 42.4946 18.7227C42.1492 9.79967 32.6843 9.17335 31.2598 9.12783C29.8428 8.99124 20.7379 7.69791 19.2506 16.4995C19.2506 16.4995 17.0504 25.428 19.6284 36.2838C19.8801 36.1651 20.1932 36.1961 20.3593 36.5169Z" fill="#F7A67B"/>
<path fill-rule="evenodd" clip-rule="evenodd" d="M38.1416 38.9031C34.6311 40.5479 32.623 41.6746 29.9161 42.6164C25.7745 44.0556 23.5898 44.3075 20.2559 38.6588C20.2663 38.6885 20.2704 38.7154 20.2801 38.7437C22.0481 43.1677 24.2748 44.1612 24.2748 44.1612L27.1079 44.3386C28.6731 43.928 31.3303 42.9214 31.3303 42.9214C36.0576 40.5914 38.3713 39.9946 39.5743 38.1835C39.1135 38.4443 38.6334 38.6734 38.1416 38.9031V38.9031Z" fill="#E29971"/>
<path fill-rule="evenodd" clip-rule="evenodd" d="M40.3445 36.359C46.8752 28.4027 46.3981 17.1955 46.3981 17.1955C47.0414 2.06157 29.129 4.22326 29.129 4.22326C22.7748 4.13702 22.9155 1 22.9155 1C19.8794 3.23208 20.7599 6.78019 20.7599 6.78019C19.6532 6.73466 19.5753 4.73917 19.5753 4.73917C15.5766 7.83414 17.9142 12.1168 17.9142 12.1168C17.1377 16.4395 18.4396 27.8867 18.4396 27.8867C18.4396 27.8867 18.8009 16.4181 21.8873 13.9612C21.8873 13.9612 24.9807 12.5045 27.1645 14.3247C27.1645 14.3247 37.4856 10.3276 38.8585 20.8167L40.188 29.9532L40.3445 36.359Z" fill="#39393B"/>
<path fill-rule="evenodd" clip-rule="evenodd" d="M39.6512 28.7737C39.6512 28.7737 40.7668 25.1661 43.4843 26.8608C43.4843 26.8608 44.715 27.587 43.6354 30.0439C43.6354 30.0439 42.0672 33.579 39.436 32.0783L39.6512 28.7737Z" fill="#F7A67B"/>
<path fill-rule="evenodd" clip-rule="evenodd" d="M38.8592 20.8186C38.8592 20.8186 39.6464 26.9031 38.949 30.2769L40.1677 30.3548C40.1677 30.3548 40.245 26.1032 42.3876 25.7708L38.8592 20.8186Z" fill="#39393B"/>
<path fill-rule="evenodd" clip-rule="evenodd" d="M54.3381 63C53.976 60.7337 53.6891 59.2899 53.576 58.9576C53.576 58.9576 52.6869 51.816 44.9251 53.0742C44.9251 53.0742 38.8276 54.9986 39.9271 63L54.3381 63Z" fill="#28A19C"/>
<path fill-rule="evenodd" clip-rule="evenodd" d="M29.4797 50.382L26.5227 45.7537L21.8808 48.2127L25.3629 53.8084L29.4797 50.382Z" fill="#28A19C"/>
<path fill-rule="evenodd" clip-rule="evenodd" d="M29.481 50.3848L35.1202 45.1451L39.7808 48.0794L33.623 54.15L29.481 50.3848Z" fill="#28A19C"/>
</g>
</svg>
