<svg width="20" height="21" viewBox="0 0 20 21" fill="none" xmlns="http://www.w3.org/2000/svg">
<path d="M11.1759 10.1212L14.7593 6.51019C14.9162 6.35169 15.0043 6.13672 15.0043 5.91256C15.0043 5.68841 14.9162 5.47343 14.7593 5.31493C14.6023 5.15643 14.3895 5.06738 14.1676 5.06738C13.9457 5.06738 13.7328 5.15643 13.5759 5.31493L10.0009 8.93439L6.42593 5.31493C6.26901 5.15643 6.05618 5.06738 5.83426 5.06738C5.61234 5.06738 5.39951 5.15643 5.24259 5.31493C5.08567 5.47343 4.99752 5.68841 4.99752 5.91256C4.99752 6.13672 5.08567 6.35169 5.24259 6.51019L8.82593 10.1212L5.24259 13.7323C5.16449 13.8105 5.10249 13.9036 5.06018 14.0062C5.01788 14.1088 4.99609 14.2188 4.99609 14.3299C4.99609 14.441 5.01788 14.551 5.06018 14.6536C5.10249 14.7562 5.16449 14.8493 5.24259 14.9275C5.32006 15.0064 5.41223 15.069 5.51378 15.1118C5.61533 15.1545 5.72425 15.1765 5.83426 15.1765C5.94427 15.1765 6.05319 15.1545 6.15474 15.1118C6.25629 15.069 6.34846 15.0064 6.42593 14.9275L10.0009 11.3081L13.5759 14.9275C13.6534 15.0064 13.7456 15.069 13.8471 15.1118C13.9487 15.1545 14.0576 15.1765 14.1676 15.1765C14.2776 15.1765 14.3865 15.1545 14.4881 15.1118C14.5896 15.069 14.6818 15.0064 14.7593 14.9275C14.8374 14.8493 14.8994 14.7562 14.9417 14.6536C14.984 14.551 15.0058 14.441 15.0058 14.3299C15.0058 14.2188 14.984 14.1088 14.9417 14.0062C14.8994 13.9036 14.8374 13.8105 14.7593 13.7323L11.1759 10.1212Z" fill="black"/>
</svg>
