<svg width="24" height="29" viewBox="0 0 24 29" fill="none" xmlns="http://www.w3.org/2000/svg">
<path d="M22.0785 19.9828V13.6357C22.1025 11.4017 21.3767 9.22423 20.0168 7.45193C18.6569 5.67963 16.7416 4.41459 14.5777 3.85945C14.6961 3.05878 14.4486 2.24701 13.9036 1.64854C13.471 1.22966 12.8913 0.996888 12.2892 1.00003C11.6869 1.0034 11.1098 1.24245 10.6818 1.66617C10.2538 2.08962 10.0087 2.66423 9.99937 3.26634V3.85951C7.86957 4.37733 5.97451 5.59304 4.61604 7.31308C3.25757 9.03312 2.51397 11.1585 2.50386 13.3502V19.9826L1.16105 22.8189C0.91622 23.3368 0.952335 23.9437 1.2571 24.4285C1.56187 24.9136 2.0929 25.2094 2.66561 25.2132H7.25449C7.40688 26.1213 7.87749 26.9453 8.5819 27.5383C9.28631 28.131 10.1787 28.4538 11.0995 28.4487H13.4775C14.3971 28.4494 15.2871 28.1252 15.9908 27.533C16.6942 26.941 17.1658 26.1194 17.3222 25.2132H21.9114C22.4824 25.2067 23.0106 24.9092 23.312 24.4241C23.6134 23.9393 23.6466 23.3338 23.3996 22.8189L22.0785 19.9828ZM11.0403 3.26616C11.0684 2.83957 11.3123 2.45704 11.6871 2.25145C12.0617 2.04587 12.5155 2.04587 12.8903 2.25145C13.2651 2.45703 13.509 2.83957 13.5369 3.26616V3.6653C12.7085 3.55191 11.8686 3.55191 11.0402 3.6653L11.0403 3.26616ZM15.5052 26.5887C14.9678 27.1262 14.238 27.4271 13.4777 27.4245H11.0997C10.451 27.4307 9.81954 27.215 9.31037 26.8128C8.80122 26.4105 8.44493 25.8462 8.30096 25.2136H16.2707C16.1525 25.7374 15.8867 26.2163 15.5049 26.5939L15.5052 26.5887ZM22.4402 23.8654C22.3236 24.0496 22.1185 24.1582 21.9009 24.1512H2.66619C2.45748 24.142 2.26705 24.0291 2.15872 23.8505C2.05039 23.6719 2.03836 23.4509 2.12694 23.2614L3.51284 20.3225C3.54437 20.2532 3.56098 20.1778 3.56122 20.1015V13.3502C3.43725 7.95773 8.82968 3.55749 14.0817 4.79806C16.0801 5.24751 17.8632 6.37173 19.1299 7.98152C20.3969 9.59106 21.0707 11.588 21.0382 13.6361V20.1071C21.0385 20.1834 21.0551 20.2587 21.0866 20.3283L22.4778 23.2672C22.5669 23.4603 22.5528 23.6851 22.4402 23.8654Z" fill="#28A19C" stroke="#28A19C" stroke-width="0.2"/>
</svg>
